<?xml version="1.0" standalone="no"?>
<!DOCTYPE svg PUBLIC "-//W3C//DTD SVG 1.1//EN" "http://www.w3.org/Graphics/SVG/1.1/DTD/svg11.dtd" >
<svg xmlns="http://www.w3.org/2000/svg" xmlns:xlink="http://www.w3.org/1999/xlink" version="1.1">
<metadata>
Created by FontForge 20190801 at Thu Jun 25 02:34:00 2015
 By Jimmy Wärting
Copyright (c) 2015 by Kosal Sen, Philatype. All rights reserved.
</metadata>
<defs>
<font id="Sen-Regular" horiz-adv-x="622" >
  <font-face 
    font-family="Sen"
    font-weight="400"
    font-stretch="normal"
    units-per-em="1024"
    panose-1="0 0 5 0 0 0 0 0 0 0"
    ascent="819"
    descent="-205"
    x-height="500"
    cap-height="670"
    bbox="-55 -255 1002 940"
    underline-thickness="50"
    underline-position="-100"
    stemh="80"
    stemv="82"
    unicode-range="U+0020-2265"
  />
<missing-glyph horiz-adv-x="500" 
d="M0 0v700h500v-700h-500zM250 395l170 255h-340zM280 350l170 -255v510zM80 50h340l-170 255zM50 605v-510l170 255z" />
    <glyph glyph-name="tt" unicode="tt" horiz-adv-x="786" 
d="M641 63c40 0 65 12 85 24v-67c-27 -21 -53 -35 -103 -35c-85 0 -129 56 -129 141v297h-271v-293c0 -42 21 -67 65 -67c40 0 65 12 85 24v-67c-27 -21 -53 -35 -103 -35c-85 0 -129 56 -129 141v297h-96v24c65 29 107 98 140 197h38v-144h197c65 0 105 45 138 134h18v-134
h146v-77h-146v-293c0 -42 21 -67 65 -67z" />
    <glyph glyph-name=".notdef" horiz-adv-x="500" 
d="M0 0v700h500v-700h-500zM250 395l170 255h-340zM280 350l170 -255v510zM80 50h340l-170 255zM50 605v-510l170 255z" />
    <glyph glyph-name="A" unicode="A" horiz-adv-x="691" 
d="M503 160h-314l-71 -160h-108l313 670h45l313 -670h-108zM466 245l-119 273l-121 -273h240z" />
    <glyph glyph-name="Aacute" unicode="&#xc1;" horiz-adv-x="691" 
d="M376 755h-82l110 135h114zM503 160h-314l-71 -160h-108l313 670h45l313 -670h-108zM466 245l-119 273l-121 -273h240z" />
    <glyph glyph-name="Abreve" unicode="&#x102;" horiz-adv-x="691" 
d="M346 740c-90 0 -159 58 -162 150h72c6 -48 37 -82 90 -82s84 34 90 82h72c-3 -92 -72 -150 -162 -150zM503 160h-314l-71 -160h-108l313 670h45l313 -670h-108zM466 245l-119 273l-121 -273h240z" />
    <glyph glyph-name="Acircumflex" unicode="&#xc2;" horiz-adv-x="691" 
d="M266 751h-82l140 139h44l140 -139h-82l-80 78zM503 160h-314l-71 -160h-108l313 670h45l313 -670h-108zM466 245l-119 273l-121 -273h240z" />
    <glyph glyph-name="Adieresis" unicode="&#xc4;" horiz-adv-x="691" 
d="M241 763c-35 0 -63 29 -63 63c0 35 28 63 63 63c34 0 63 -28 63 -63c0 -34 -29 -63 -63 -63zM451 763c-35 0 -63 29 -63 63c0 35 28 63 63 63c34 0 63 -28 63 -63c0 -34 -29 -63 -63 -63zM503 160h-314l-71 -160h-108l313 670h45l313 -670h-108zM466 245l-119 273
l-121 -273h240z" />
    <glyph glyph-name="Agrave" unicode="&#xc0;" horiz-adv-x="691" 
d="M309 755l-142 135h114l110 -135h-82zM503 160h-314l-71 -160h-108l313 670h45l313 -670h-108zM466 245l-119 273l-121 -273h240z" />
    <glyph glyph-name="Amacron" unicode="&#x100;" horiz-adv-x="691" 
d="M521 808h-350v80h350v-80zM503 160h-314l-71 -160h-108l313 670h45l313 -670h-108zM466 245l-119 273l-121 -273h240z" />
    <glyph glyph-name="Aogonek" unicode="&#x104;" horiz-adv-x="691" 
d="M555 -98c0 -28 18 -51 53 -51c23 0 39 8 54 18v-69c-14 -7 -38 -25 -74 -25c-60 0 -117 33 -117 99c0 68 70 112 108 126h-6l-70 160h-314l-71 -160h-108l313 670h45l313 -670h-21c-47 -19 -105 -55 -105 -98zM466 245l-119 273l-121 -273h240z" />
    <glyph glyph-name="Aring" unicode="&#xc5;" horiz-adv-x="691" 
d="M346 729c-48 0 -83 38 -83 83s35 83 83 83s82 -38 82 -83s-34 -83 -82 -83zM346 854c-23 0 -41 -20 -41 -42c0 -23 18 -42 41 -42c22 0 40 19 40 42c0 22 -18 42 -40 42zM503 160h-314l-71 -160h-108l313 670h45l313 -670h-108zM466 245l-119 273l-121 -273h240z" />
    <glyph glyph-name="Atilde" unicode="&#xc3;" horiz-adv-x="691" 
d="M290 822c-23 0 -36 -21 -36 -46h-68c0 58 44 103 104 103c73 0 84 -51 126 -51c24 0 36 21 36 46h68c0 -58 -44 -103 -104 -103c-73 0 -84 51 -126 51zM503 160h-314l-71 -160h-108l313 670h45l313 -670h-108zM466 245l-119 273l-121 -273h240z" />
    <glyph glyph-name="AE" unicode="&#xc6;" horiz-adv-x="1082" 
d="M633 585v-199h326v-85h-326v-216h369v-85h-459v193h-278l-137 -193h-118l493 670h499v-85h-369zM543 270v349l-11 -51l-212 -298h223z" />
    <glyph glyph-name="B" unicode="B" horiz-adv-x="688" 
d="M491 344c59 -12 130 -58 130 -155c0 -112 -105 -199 -267 -199c-83 0 -181 11 -244 25v655h268c119 0 211 -72 211 -181c0 -55 -29 -119 -98 -145zM200 585v-210h157c84 0 140 43 140 104c0 71 -56 106 -140 106h-157zM352 75c100 0 177 44 177 114
c0 73 -77 106 -170 106h-159v-208c48 -9 115 -12 152 -12z" />
    <glyph glyph-name="C" unicode="C" horiz-adv-x="674" 
d="M403 685c97 0 154 -30 201 -72v-99c-45 31 -99 83 -201 83c-150 0 -261 -112 -261 -262s111 -262 261 -262c102 0 174 42 221 78v-90c-47 -42 -124 -76 -221 -76c-202 0 -353 158 -353 350s151 350 353 350z" />
    <glyph glyph-name="Cacute" unicode="&#x106;" horiz-adv-x="674" 
d="M435 755h-82l110 135h114zM403 685c97 0 154 -30 201 -72v-99c-45 31 -99 83 -201 83c-150 0 -261 -112 -261 -262s111 -262 261 -262c102 0 174 42 221 78v-90c-47 -42 -124 -76 -221 -76c-202 0 -353 158 -353 350s151 350 353 350z" />
    <glyph glyph-name="Ccaron" unicode="&#x10c;" horiz-adv-x="674" 
d="M325 890l80 -78l80 78h82l-140 -139h-44l-140 139h82zM403 685c97 0 154 -30 201 -72v-99c-45 31 -99 83 -201 83c-150 0 -261 -112 -261 -262s111 -262 261 -262c102 0 174 42 221 78v-90c-47 -42 -124 -76 -221 -76c-202 0 -353 158 -353 350s151 350 353 350z" />
    <glyph glyph-name="Ccedilla" unicode="&#xc7;" horiz-adv-x="674" 
d="M624 151v-90c-44 -39 -114 -72 -202 -76l-5 -55c55 7 96 -28 96 -77c0 -53 -41 -93 -110 -93c-20 0 -57 8 -78 25l7 55c21 -11 45 -21 74 -21c23 0 39 13 39 31s-14 29 -39 29c-10 0 -22 -2 -35 -9l-16 12l12 105c-184 17 -317 168 -317 348c0 192 151 350 353 350
c97 0 154 -30 201 -72v-99c-45 31 -99 83 -201 83c-150 0 -261 -112 -261 -262s111 -262 261 -262c102 0 174 42 221 78z" />
    <glyph glyph-name="D" unicode="D" horiz-adv-x="759" 
d="M110 670h213c207 0 386 -112 386 -328c0 -198 -128 -352 -353 -352c-92 0 -165 10 -246 25v655zM200 585v-500c50 -6 108 -10 156 -10c162 0 261 117 261 267c0 164 -144 243 -294 243h-123z" />
    <glyph glyph-name="Eth" unicode="&#xd0;" horiz-adv-x="759" 
d="M110 670h213c207 0 386 -112 386 -328c0 -198 -128 -352 -353 -352c-92 0 -165 10 -246 25v278h-98v90h98v287zM356 75c162 0 261 117 261 267c0 164 -144 243 -294 243h-123v-202h113v-90h-113v-208c50 -6 108 -10 156 -10z" />
    <glyph glyph-name="Dcaron" unicode="&#x10e;" horiz-adv-x="759" 
d="M287 890l80 -78l80 78h82l-140 -139h-44l-140 139h82zM110 670h213c207 0 386 -112 386 -328c0 -198 -128 -352 -353 -352c-92 0 -165 10 -246 25v655zM200 585v-500c50 -6 108 -10 156 -10c162 0 261 117 261 267c0 164 -144 243 -294 243h-123z" />
    <glyph glyph-name="Dcroat" unicode="&#x110;" horiz-adv-x="759" 
d="M110 670h213c207 0 386 -112 386 -328c0 -198 -128 -352 -353 -352c-92 0 -165 10 -246 25v278h-98v90h98v287zM356 75c162 0 261 117 261 267c0 164 -144 243 -294 243h-123v-202h113v-90h-113v-208c50 -6 108 -10 156 -10z" />
    <glyph glyph-name="E" unicode="E" horiz-adv-x="649" 
d="M200 585v-199h326v-85h-326v-216h369v-85h-459v670h459v-85h-369z" />
    <glyph glyph-name="Eacute" unicode="&#xc9;" horiz-adv-x="649" 
d="M370 755h-82l110 135h114zM200 585v-199h326v-85h-326v-216h369v-85h-459v670h459v-85h-369z" />
    <glyph glyph-name="Ecaron" unicode="&#x11a;" horiz-adv-x="649" 
d="M318 751l-140 139h82l80 -78l80 78h82l-140 -139h-44zM200 585v-199h326v-85h-326v-216h369v-85h-459v670h459v-85h-369z" />
    <glyph glyph-name="Ecircumflex" unicode="&#xca;" horiz-adv-x="649" 
d="M260 751h-82l140 139h44l140 -139h-82l-80 78zM200 585v-199h326v-85h-326v-216h369v-85h-459v670h459v-85h-369z" />
    <glyph glyph-name="Edieresis" unicode="&#xcb;" horiz-adv-x="649" 
d="M235 763c-35 0 -63 29 -63 63c0 35 28 63 63 63c34 0 63 -28 63 -63c0 -34 -29 -63 -63 -63zM445 763c-35 0 -63 29 -63 63c0 35 28 63 63 63c34 0 63 -28 63 -63c0 -34 -29 -63 -63 -63zM200 585v-199h326v-85h-326v-216h369v-85h-459v670h459v-85h-369z" />
    <glyph glyph-name="Edotaccent" unicode="&#x116;" horiz-adv-x="649" 
d="M340 764c-35 0 -63 29 -63 63c0 35 28 63 63 63c34 0 63 -28 63 -63c0 -34 -29 -63 -63 -63zM200 585v-199h326v-85h-326v-216h369v-85h-459v670h459v-85h-369z" />
    <glyph glyph-name="Egrave" unicode="&#xc8;" horiz-adv-x="649" 
d="M303 755l-142 135h114l110 -135h-82zM200 585v-199h326v-85h-326v-216h369v-85h-459v670h459v-85h-369z" />
    <glyph glyph-name="Emacron" unicode="&#x112;" horiz-adv-x="649" 
d="M515 808h-350v80h350v-80zM200 585v-199h326v-85h-326v-216h369v-85h-459v670h459v-85h-369z" />
    <glyph glyph-name="Eogonek" unicode="&#x118;" horiz-adv-x="649" 
d="M200 585v-199h326v-85h-326v-216h369v-85h-2c-47 -19 -105 -55 -105 -98c0 -28 18 -51 53 -51c23 0 39 8 54 18v-69c-14 -7 -38 -25 -74 -25c-60 0 -117 33 -117 99c0 68 70 112 108 126h-376v670h459v-85h-369z" />
    <glyph glyph-name="F" unicode="F" horiz-adv-x="635" 
d="M200 585v-224h288v-85h-288v-276h-90v670h438v-85h-348z" />
    <glyph glyph-name="G" unicode="G" horiz-adv-x="701" 
d="M661 366v-275c-48 -52 -141 -106 -258 -106c-202 0 -353 158 -353 350s151 350 353 350c97 0 154 -30 201 -72v-99c-45 31 -99 83 -201 83c-150 0 -261 -112 -261 -262s111 -262 261 -262c101 0 137 38 160 57l1 156h-168v80h265z" />
    <glyph glyph-name="Gcommaaccent" unicode="&#x122;" horiz-adv-x="701" 
d="M661 366v-275c-48 -52 -141 -106 -258 -106c-202 0 -353 158 -353 350s151 350 353 350c97 0 154 -30 201 -72v-99c-45 31 -99 83 -201 83c-150 0 -261 -112 -261 -262s111 -262 261 -262c101 0 137 38 160 57l1 156h-168v80h265zM372 -70v48c57 0 107 -38 107 -94
c0 -71 -58 -109 -103 -109c-28 0 -49 9 -62 18v52c16 -13 34 -18 54 -18c36 0 58 22 58 54c0 31 -29 49 -54 49z" />
    <glyph glyph-name="H" unicode="H" horiz-adv-x="782" 
d="M672 670v-670h-90v303h-382v-303h-90v670h90v-282h382v282h90z" />
    <glyph glyph-name="I" unicode="I" horiz-adv-x="536" 
d="M313 585v-500h113v-85h-316v85h113v500h-113v85h316v-85h-113z" />
    <glyph glyph-name="IJ" unicode="&#x132;" horiz-adv-x="851" 
d="M741 672v-638c0 -170 -91 -244 -216 -289l-44 87c114 41 170 103 170 184v656h90zM426 670v-85h-113v-500h113v-85h-316v85h113v500h-113v85h316z" />
    <glyph glyph-name="Iacute" unicode="&#xcd;" horiz-adv-x="536" 
d="M302 755h-82l110 135h114zM426 670v-85h-113v-500h113v-85h-316v85h113v500h-113v85h316z" />
    <glyph glyph-name="Icircumflex" unicode="&#xce;" horiz-adv-x="536" 
d="M192 751h-82l140 139h44l140 -139h-82l-80 78zM426 670v-85h-113v-500h113v-85h-316v85h113v500h-113v85h316z" />
    <glyph glyph-name="Idieresis" unicode="&#xcf;" horiz-adv-x="536" 
d="M167 763c-35 0 -63 29 -63 63c0 35 28 63 63 63c34 0 63 -28 63 -63c0 -34 -29 -63 -63 -63zM377 763c-35 0 -63 29 -63 63c0 35 28 63 63 63c34 0 63 -28 63 -63c0 -34 -29 -63 -63 -63zM426 670v-85h-113v-500h113v-85h-316v85h113v500h-113v85h316z" />
    <glyph glyph-name="Igrave" unicode="&#xcc;" horiz-adv-x="536" 
d="M235 755l-142 135h114l110 -135h-82zM313 585v-500h113v-85h-316v85h113v500h-113v85h316v-85h-113z" />
    <glyph glyph-name="Imacron" unicode="&#x12a;" horiz-adv-x="536" 
d="M447 888v-80h-350v80h350zM426 670v-85h-113v-500h113v-85h-316v85h113v500h-113v85h316z" />
    <glyph glyph-name="Iogonek" unicode="&#x12e;" horiz-adv-x="536" 
d="M313 585v-500h113v-85h-113c-47 -19 -105 -55 -105 -98c0 -28 18 -51 53 -51c23 0 39 8 54 18v-69c-14 -7 -38 -25 -74 -25c-60 0 -117 33 -117 99c0 68 70 112 108 126h-122v85h113v500h-113v85h316v-85h-113z" />
    <glyph glyph-name="J" unicode="J" horiz-adv-x="315" 
d="M205 672v-638c0 -170 -91 -244 -216 -289l-44 87c114 41 170 103 170 184v656h90z" />
    <glyph glyph-name="K" unicode="K" horiz-adv-x="672" 
d="M286 289l-86 -94v-195h-90v670h90v-352l306 352h126l-281 -309l311 -361h-125z" />
    <glyph glyph-name="Kcommaaccent" unicode="&#x136;" horiz-adv-x="672" 
d="M662 0h-125l-251 289l-86 -94v-195h-90v670h90v-352l306 352h126l-281 -309zM274 -70v48c57 0 107 -38 107 -94c0 -71 -58 -109 -103 -109c-28 0 -49 9 -62 18v52c16 -13 34 -18 54 -18c36 0 58 22 58 54c0 31 -29 49 -54 49z" />
    <glyph glyph-name="L" unicode="L" horiz-adv-x="636" 
d="M200 85h369v-85h-459v670h90v-585z" />
    <glyph glyph-name="Lacute" unicode="&#x139;" horiz-adv-x="636" 
d="M201 755h-82l110 135h114zM200 85h369v-85h-459v670h90v-585z" />
    <glyph glyph-name="Lcaron" unicode="&#x13d;" horiz-adv-x="581" 
d="M362 718l-30 -188h-67l10 188h87zM200 85h369v-85h-459v670h90v-585z" />
    <glyph glyph-name="Lcommaaccent" unicode="&#x13b;" horiz-adv-x="636" 
d="M200 85h369v-85h-459v670h90v-585zM292 -70v48c57 0 107 -38 107 -94c0 -71 -58 -109 -103 -109c-28 0 -49 9 -62 18v52c16 -13 34 -18 54 -18c36 0 58 22 58 54c0 31 -29 49 -54 49z" />
    <glyph glyph-name="Ldot" unicode="&#x13f;" horiz-adv-x="588" 
d="M200 85h369v-85h-459v670h90v-585zM409 462c38 0 70 -31 70 -70c0 -38 -32 -70 -70 -70c-39 0 -70 32 -70 70c0 39 31 70 70 70z" />
    <glyph glyph-name="Lslash" unicode="&#x141;" horiz-adv-x="636" 
d="M569 85v-85h-459v307l-100 -74v76l100 74v287h90v-220l91 67v-76l-91 -67v-289h369z" />
    <glyph glyph-name="M" unicode="M" horiz-adv-x="843" 
d="M733 0h-90v490l-206 -230h-26l-211 230v-490h-90v670h36l278 -298l273 298h36v-670z" />
    <glyph glyph-name="N" unicode="N" horiz-adv-x="779" 
d="M669 0h-36l-433 479v-479h-90v670h36l433 -485v485h90v-670z" />
    <glyph glyph-name="Nacute" unicode="&#x143;" horiz-adv-x="779" 
d="M417 755h-82l110 135h114zM669 0h-36l-433 479v-479h-90v670h36l433 -485v485h90v-670z" />
    <glyph glyph-name="Ncaron" unicode="&#x147;" horiz-adv-x="779" 
d="M307 890l80 -78l80 78h82l-140 -139h-44l-140 139h82zM669 0h-36l-433 479v-479h-90v670h36l433 -485v485h90v-670z" />
    <glyph glyph-name="Ncommaaccent" unicode="&#x145;" horiz-adv-x="779" 
d="M669 0h-36l-433 479v-479h-90v670h36l433 -485v485h90v-670zM355 -70v48c57 0 107 -38 107 -94c0 -71 -58 -109 -103 -109c-28 0 -49 9 -62 18v52c16 -13 34 -18 54 -18c36 0 58 22 58 54c0 31 -29 49 -54 49z" />
    <glyph glyph-name="Eng" unicode="&#x14a;" horiz-adv-x="756" 
d="M613 35l-2 2v-3c0 -170 -91 -244 -216 -289l-44 87c114 41 170 103 170 184v117l-314 336v-469h-97v670h36l375 -401v403h90v-500l35 -37z" />
    <glyph glyph-name="Ntilde" unicode="&#xd1;" horiz-adv-x="779" 
d="M493 874h68c0 -58 -44 -103 -104 -103c-73 0 -84 51 -126 51c-23 0 -36 -21 -36 -46h-68c0 58 44 103 104 103c73 0 84 -51 126 -51c24 0 36 21 36 46zM669 0h-36l-433 479v-479h-90v670h36l433 -485v485h90v-670z" />
    <glyph glyph-name="O" unicode="O" horiz-adv-x="806" 
d="M403 685c202 0 353 -158 353 -350s-151 -350 -353 -350s-353 158 -353 350s151 350 353 350zM403 597c-150 0 -261 -112 -261 -262s111 -262 261 -262s261 112 261 262s-111 262 -261 262z" />
    <glyph glyph-name="Oacute" unicode="&#xd3;" horiz-adv-x="806" 
d="M433 755h-82l110 135h114zM403 685c202 0 353 -158 353 -350s-151 -350 -353 -350s-353 158 -353 350s151 350 353 350zM403 597c-150 0 -261 -112 -261 -262s111 -262 261 -262s261 112 261 262s-111 262 -261 262z" />
    <glyph glyph-name="Ocircumflex" unicode="&#xd4;" horiz-adv-x="806" 
d="M565 751h-82l-80 78l-80 -78h-82l140 139h44zM403 685c202 0 353 -158 353 -350s-151 -350 -353 -350s-353 158 -353 350s151 350 353 350zM403 597c-150 0 -261 -112 -261 -262s111 -262 261 -262s261 112 261 262s-111 262 -261 262z" />
    <glyph glyph-name="Odieresis" unicode="&#xd6;" horiz-adv-x="806" 
d="M298 889c34 0 63 -28 63 -63c0 -34 -29 -63 -63 -63c-35 0 -63 29 -63 63c0 35 28 63 63 63zM508 889c34 0 63 -28 63 -63c0 -34 -29 -63 -63 -63c-35 0 -63 29 -63 63c0 35 28 63 63 63zM403 685c202 0 353 -158 353 -350s-151 -350 -353 -350s-353 158 -353 350
s151 350 353 350zM403 597c-150 0 -261 -112 -261 -262s111 -262 261 -262s261 112 261 262s-111 262 -261 262z" />
    <glyph glyph-name="Ograve" unicode="&#xd2;" horiz-adv-x="806" 
d="M338 890l110 -135h-82l-142 135h114zM403 685c202 0 353 -158 353 -350s-151 -350 -353 -350s-353 158 -353 350s151 350 353 350zM403 597c-150 0 -261 -112 -261 -262s111 -262 261 -262s261 112 261 262s-111 262 -261 262z" />
    <glyph glyph-name="Ohungarumlaut" unicode="&#x150;" horiz-adv-x="806" 
d="M332 755h-82l110 135h114zM483 755h-82l110 135h114zM403 685c202 0 353 -158 353 -350s-151 -350 -353 -350s-353 158 -353 350s151 350 353 350zM403 597c-150 0 -261 -112 -261 -262s111 -262 261 -262s261 112 261 262s-111 262 -261 262z" />
    <glyph glyph-name="Omacron" unicode="&#x14c;" horiz-adv-x="806" 
d="M578 808h-350v80h350v-80zM403 685c202 0 353 -158 353 -350s-151 -350 -353 -350s-353 158 -353 350s151 350 353 350zM403 597c-150 0 -261 -112 -261 -262s111 -262 261 -262s261 112 261 262s-111 262 -261 262z" />
    <glyph glyph-name="Oslash" unicode="&#xd8;" horiz-adv-x="806" 
d="M702 645l-49 -61c64 -64 103 -152 103 -249c0 -192 -151 -350 -353 -350c-70 0 -134 19 -188 52l-41 -52l-49 40l40 50c-72 64 -115 157 -115 260c0 192 151 350 353 350c75 0 144 -22 200 -60l47 60zM142 335c0 -77 29 -144 78 -191l328 412c-41 26 -91 41 -145 41
c-150 0 -261 -112 -261 -262zM403 73c150 0 261 112 261 262c0 71 -25 133 -67 179l-326 -408c38 -21 83 -33 132 -33z" />
    <glyph glyph-name="Otilde" unicode="&#xd5;" horiz-adv-x="806" 
d="M509 874h68c0 -58 -44 -103 -104 -103c-73 0 -84 51 -126 51c-23 0 -36 -21 -36 -46h-68c0 58 44 103 104 103c73 0 84 -51 126 -51c24 0 36 21 36 46zM403 685c202 0 353 -158 353 -350s-151 -350 -353 -350s-353 158 -353 350s151 350 353 350zM403 597
c-150 0 -261 -112 -261 -262s111 -262 261 -262s261 112 261 262s-111 262 -261 262z" />
    <glyph glyph-name="OE" unicode="&#x152;" horiz-adv-x="1038" 
d="M50 335c0 192 161 335 353 335h93v-95h-93c-140 0 -251 -90 -251 -240s111 -240 251 -240h93v-95h-93c-192 0 -353 143 -353 335zM589 585v-199h326v-85h-326v-216h369v-85h-459v670h459v-85h-369z" />
    <glyph glyph-name="P" unicode="P" horiz-adv-x="660" 
d="M110 670h267c115 0 233 -88 233 -226c0 -118 -110 -215 -248 -215c-69 0 -127 17 -162 33v-262h-90v670zM359 314c101 0 159 55 159 130c0 85 -80 141 -166 141h-152v-241c36 -15 99 -30 159 -30z" />
    <glyph glyph-name="Thorn" unicode="&#xde;" horiz-adv-x="634" 
d="M207 550h151c115 0 226 -78 226 -198c0 -110 -83 -204 -225 -204c-59 0 -106 9 -152 24v-172h-97v670h97v-120zM207 460v-197c42 -23 100 -30 146 -30c91 0 129 52 129 119s-63 108 -149 108h-126z" />
    <glyph glyph-name="Q" unicode="Q" horiz-adv-x="831" 
d="M506 -1c92 -35 193 -63 258 -63v-90c-111 0 -258 62 -361 139c-202 0 -353 158 -353 350s151 350 353 350s353 -158 353 -350c0 -158 -102 -293 -250 -336zM142 335c0 -150 111 -262 261 -262s261 112 261 262s-111 262 -261 262s-261 -112 -261 -262z" />
    <glyph glyph-name="R" unicode="R" horiz-adv-x="666" 
d="M518 0l-318 282v-282h-90v670h257c115 0 233 -63 233 -201c0 -125 -122 -191 -238 -191c-9 0 -20 0 -33 1l327 -279h-138zM200 585v-215c44 -12 98 -19 149 -19c101 0 159 46 159 118c0 75 -70 116 -156 116h-152z" />
    <glyph glyph-name="Racute" unicode="&#x154;" horiz-adv-x="666" 
d="M338 755h-82l110 135h114zM518 0l-318 282v-282h-90v670h257c115 0 233 -63 233 -201c0 -125 -122 -191 -238 -191c-9 0 -20 0 -33 1l327 -279h-138zM200 585v-215c44 -12 98 -19 149 -19c101 0 159 46 159 118c0 75 -70 116 -156 116h-152z" />
    <glyph glyph-name="Rcaron" unicode="&#x158;" horiz-adv-x="666" 
d="M286 751l-140 139h82l80 -78l80 78h82l-140 -139h-44zM518 0l-318 282v-282h-90v670h257c115 0 233 -63 233 -201c0 -125 -122 -191 -238 -191c-9 0 -20 0 -33 1l327 -279h-138zM200 585v-215c44 -12 98 -19 149 -19c101 0 159 46 159 118c0 75 -70 116 -156 116h-152z
" />
    <glyph glyph-name="Rcommaaccent" unicode="&#x156;" horiz-adv-x="666" 
d="M656 0h-138l-318 282v-282h-90v670h257c115 0 233 -63 233 -201c0 -125 -122 -191 -238 -191c-9 0 -20 0 -33 1zM200 585v-215c44 -12 98 -19 149 -19c101 0 159 46 159 118c0 75 -70 116 -156 116h-152zM332 -70v48c57 0 107 -38 107 -94c0 -71 -58 -109 -103 -109
c-28 0 -49 9 -62 18v52c16 -13 34 -18 54 -18c36 0 58 22 58 54c0 31 -29 49 -54 49z" />
    <glyph glyph-name="S" unicode="S" horiz-adv-x="523" 
d="M272 680c79 0 126 -28 165 -53v-93c-38 28 -93 58 -155 58c-61 0 -139 -31 -139 -103c0 -54 44 -76 99 -101l92 -42c92 -42 139 -86 139 -170c0 -109 -107 -186 -230 -186c-77 0 -144 31 -192 65v93c52 -36 119 -70 204 -70c67 0 126 35 126 94c0 50 -55 78 -96 96
l-111 50c-96 43 -124 99 -124 174c0 106 103 188 222 188z" />
    <glyph glyph-name="Sacute" unicode="&#x15a;" horiz-adv-x="523" 
d="M303 755h-82l110 135h114zM272 680c79 0 126 -28 165 -53v-93c-38 28 -93 58 -155 58c-61 0 -139 -31 -139 -103c0 -54 44 -76 99 -101l92 -42c92 -42 139 -86 139 -170c0 -109 -107 -186 -230 -186c-77 0 -144 31 -192 65v93c52 -36 119 -70 204 -70c67 0 126 35 126 94
c0 50 -55 78 -96 96l-111 50c-96 43 -124 99 -124 174c0 106 103 188 222 188z" />
    <glyph glyph-name="Scaron" unicode="&#x160;" horiz-adv-x="523" 
d="M193 890l80 -78l80 78h82l-140 -139h-44l-140 139h82zM272 680c79 0 126 -28 165 -53v-93c-38 28 -93 58 -155 58c-61 0 -139 -31 -139 -103c0 -54 44 -76 99 -101l92 -42c92 -42 139 -86 139 -170c0 -109 -107 -186 -230 -186c-77 0 -144 31 -192 65v93
c52 -36 119 -70 204 -70c67 0 126 35 126 94c0 50 -55 78 -96 96l-111 50c-96 43 -124 99 -124 174c0 106 103 188 222 188z" />
    <glyph glyph-name="Scedilla" unicode="&#x15e;" horiz-adv-x="523" 
d="M473 176c0 -96 -82 -167 -186 -183l-5 -63c55 7 96 -28 96 -77c0 -53 -41 -93 -110 -93c-20 0 -57 8 -78 25l7 55c21 -11 45 -21 74 -21c23 0 39 13 39 31s-14 29 -39 29c-10 0 -22 -2 -35 -9l-16 12l13 108c-73 3 -136 33 -182 65v93c52 -36 119 -70 204 -70
c67 0 126 35 126 94c0 50 -55 78 -96 96l-111 50c-96 43 -124 99 -124 174c0 106 103 188 222 188c79 0 126 -28 165 -53v-93c-38 28 -93 58 -155 58c-61 0 -139 -31 -139 -103c0 -54 44 -76 99 -101l92 -42c92 -42 139 -86 139 -170z" />
    <glyph glyph-name="T" unicode="T" horiz-adv-x="611" 
d="M582 585h-231v-582h-90v582h-231v85h552v-85z" />
    <glyph glyph-name="Tbar" unicode="&#x166;" horiz-adv-x="611" 
d="M481 808h-350v80h350v-80zM582 585h-231v-582h-90v582h-231v85h552v-85z" />
    <glyph glyph-name="Tcaron" unicode="&#x164;" horiz-adv-x="611" 
d="M284 751l-140 139h82l80 -78l80 78h82l-140 -139h-44zM582 585h-231v-582h-90v582h-231v85h552v-85z" />
    <glyph glyph-name="Tcedilla" unicode="&#x162;" horiz-adv-x="611" 
d="M582 670v-85h-231v-582h-90v582h-231v85h552zM332 2l-6 -72c55 7 96 -28 96 -77c0 -53 -41 -93 -110 -93c-20 0 -57 8 -78 25l7 55c21 -11 45 -21 74 -21c23 0 39 13 39 31s-14 29 -39 29c-10 0 -22 -2 -35 -9l-16 12l14 120h54z" />
    <glyph glyph-name="U" unicode="U" horiz-adv-x="752" 
d="M652 672v-407c0 -175 -119 -278 -276 -278s-276 103 -276 278v407h90v-404c0 -136 86 -190 186 -189s186 53 186 189v404h90z" />
    <glyph glyph-name="Uacute" unicode="&#xda;" horiz-adv-x="752" 
d="M406 755h-82l110 135h114zM652 672v-407c0 -175 -119 -278 -276 -278s-276 103 -276 278v407h90v-404c0 -136 86 -190 186 -189s186 53 186 189v404h90z" />
    <glyph glyph-name="Ucircumflex" unicode="&#xdb;" horiz-adv-x="752" 
d="M538 751h-82l-80 78l-80 -78h-82l140 139h44zM652 672v-407c0 -175 -119 -278 -276 -278s-276 103 -276 278v407h90v-404c0 -136 86 -190 186 -189s186 53 186 189v404h90z" />
    <glyph glyph-name="Udieresis" unicode="&#xdc;" horiz-adv-x="752" 
d="M271 889c34 0 63 -28 63 -63c0 -34 -29 -63 -63 -63c-35 0 -63 29 -63 63c0 35 28 63 63 63zM481 889c34 0 63 -28 63 -63c0 -34 -29 -63 -63 -63c-35 0 -63 29 -63 63c0 35 28 63 63 63zM652 672v-407c0 -175 -119 -278 -276 -278s-276 103 -276 278v407h90v-404
c0 -136 86 -190 186 -189s186 53 186 189v404h90z" />
    <glyph glyph-name="Ugrave" unicode="&#xd9;" horiz-adv-x="752" 
d="M311 890l110 -135h-82l-142 135h114zM652 672v-407c0 -175 -119 -278 -276 -278s-276 103 -276 278v407h90v-404c0 -136 86 -190 186 -189s186 53 186 189v404h90z" />
    <glyph glyph-name="Uhungarumlaut" unicode="&#x170;" horiz-adv-x="752" 
d="M305 755h-82l110 135h114zM456 755h-82l110 135h114zM652 672v-407c0 -175 -119 -278 -276 -278s-276 103 -276 278v407h90v-404c0 -136 86 -190 186 -189s186 53 186 189v404h90z" />
    <glyph glyph-name="Umacron" unicode="&#x16a;" horiz-adv-x="752" 
d="M551 808h-350v80h350v-80zM652 672v-407c0 -175 -119 -278 -276 -278s-276 103 -276 278v407h90v-404c0 -136 86 -190 186 -189s186 53 186 189v404h90z" />
    <glyph glyph-name="Uogonek" unicode="&#x172;" horiz-adv-x="752" 
d="M652 672v-407c0 -146 -83 -242 -201 -270c-44 -20 -94 -53 -94 -93c0 -28 18 -51 53 -51c23 0 39 8 54 18v-69c-14 -7 -38 -25 -74 -25c-60 0 -117 33 -117 99c0 54 45 93 82 114c-147 9 -255 110 -255 277v407h90v-404c0 -136 86 -190 186 -189s186 53 186 189v404h90z
" />
    <glyph glyph-name="Uring" unicode="&#x16e;" horiz-adv-x="752" 
d="M376 895c48 0 82 -38 82 -83s-34 -83 -82 -83s-83 38 -83 83s35 83 83 83zM376 854c-23 0 -41 -20 -41 -42c0 -23 18 -42 41 -42c22 0 40 19 40 42c0 22 -18 42 -40 42zM652 672v-407c0 -175 -119 -278 -276 -278s-276 103 -276 278v407h90v-404c0 -136 86 -190 186 -189
s186 53 186 189v404h90z" />
    <glyph glyph-name="V" unicode="V" horiz-adv-x="691" 
d="M368 0h-45l-313 670h108l226 -518l229 518h108z" />
    <glyph glyph-name="W" unicode="W" horiz-adv-x="944" 
d="M699 0h-51l-180 507l-182 -507h-51l-225 670h98l157 -498l177 498l58 -1l172 -497l164 498h98z" />
    <glyph glyph-name="Wacute" unicode="&#x1e82;" horiz-adv-x="944" 
d="M502 755h-82l110 135h114zM699 0h-51l-180 507l-182 -507h-51l-225 670h98l157 -498l177 498l58 -1l172 -497l164 498h98z" />
    <glyph glyph-name="Wcircumflex" unicode="&#x174;" horiz-adv-x="944" 
d="M634 751h-82l-80 78l-80 -78h-82l140 139h44zM699 0h-51l-180 507l-182 -507h-51l-225 670h98l157 -498l177 498l58 -1l172 -497l164 498h98z" />
    <glyph glyph-name="Wdieresis" unicode="&#x1e84;" horiz-adv-x="944" 
d="M367 889c34 0 63 -28 63 -63c0 -34 -29 -63 -63 -63c-35 0 -63 29 -63 63c0 35 28 63 63 63zM577 889c34 0 63 -28 63 -63c0 -34 -29 -63 -63 -63c-35 0 -63 29 -63 63c0 35 28 63 63 63zM699 0h-51l-180 507l-182 -507h-51l-225 670h98l157 -498l177 498l58 -1l172 -497
l164 498h98z" />
    <glyph glyph-name="Wgrave" unicode="&#x1e80;" horiz-adv-x="944" 
d="M407 890l110 -135h-82l-142 135h114zM699 0h-51l-180 507l-182 -507h-51l-225 670h98l157 -498l177 498l58 -1l172 -497l164 498h98z" />
    <glyph glyph-name="X" unicode="X" horiz-adv-x="644" 
d="M371 325l263 -325h-120l-202 262l-192 -262h-110l251 335l-251 335h120l190 -273l194 273h120z" />
    <glyph glyph-name="Y" unicode="Y" horiz-adv-x="631" 
d="M364 275v-275h-97v262l-257 408h108l196 -316l199 316h108z" />
    <glyph glyph-name="Yacute" unicode="&#xdd;" horiz-adv-x="631" 
d="M346 755h-82l110 135h114zM364 275v-275h-97v262l-257 408h108l196 -316l199 316h108z" />
    <glyph glyph-name="Ycircumflex" unicode="&#x176;" horiz-adv-x="631" 
d="M236 751h-82l140 139h44l140 -139h-82l-80 78zM364 275v-275h-97v262l-257 408h108l196 -316l199 316h108z" />
    <glyph glyph-name="Ydieresis" unicode="&#x178;" horiz-adv-x="631" 
d="M211 763c-35 0 -63 29 -63 63c0 35 28 63 63 63c34 0 63 -28 63 -63c0 -34 -29 -63 -63 -63zM421 763c-35 0 -63 29 -63 63c0 35 28 63 63 63c34 0 63 -28 63 -63c0 -34 -29 -63 -63 -63zM364 275v-275h-97v262l-257 408h108l196 -316l199 316h108z" />
    <glyph glyph-name="Ygrave" unicode="&#x1ef2;" horiz-adv-x="631" 
d="M279 755l-142 135h114l110 -135h-82zM364 275v-275h-97v262l-257 408h108l196 -316l199 316h108z" />
    <glyph glyph-name="Z" unicode="Z" horiz-adv-x="651" 
d="M584 634l-383 -549h383v-85h-517v36l372 549h-372v85h517v-36z" />
    <glyph glyph-name="Zacute" unicode="&#x179;" horiz-adv-x="651" 
d="M356 755h-82l110 135h114zM584 634l-383 -549h383v-85h-517v36l372 549h-372v85h517v-36z" />
    <glyph glyph-name="Zcaron" unicode="&#x17d;" horiz-adv-x="651" 
d="M246 890l80 -78l80 78h82l-140 -139h-44l-140 139h82zM584 634l-383 -549h383v-85h-517v36l372 549h-372v85h517v-36z" />
    <glyph glyph-name="Zdotaccent" unicode="&#x17b;" horiz-adv-x="651" 
d="M326 890c34 0 63 -28 63 -63c0 -34 -29 -63 -63 -63c-35 0 -63 29 -63 63c0 35 28 63 63 63zM584 634l-383 -549h383v-85h-517v36l372 549h-372v85h517v-36z" />
    <glyph glyph-name="a" unicode="a" 
d="M291 510c57 0 121 -29 164 -77v67h82v-500h-82v85c-35 -53 -96 -100 -172 -100c-129 0 -233 105 -233 257c0 165 104 268 241 268zM306 430c-107 0 -171 -91 -171 -188s64 -177 161 -177c91 0 160 79 159 186l-1 96c-42 52 -87 83 -148 83z" />
    <glyph glyph-name="aacute" unicode="&#xe1;" 
d="M341 585h-82l110 135h114zM291 510c57 0 121 -29 164 -77v67h82v-500h-82v85c-35 -53 -96 -100 -172 -100c-129 0 -233 105 -233 257c0 165 104 268 241 268zM306 430c-107 0 -171 -91 -171 -188s64 -177 161 -177c91 0 160 79 159 186l-1 96c-42 52 -87 83 -148 83z" />
    <glyph glyph-name="abreve" unicode="&#x103;" 
d="M401 720h72c-3 -92 -72 -150 -162 -150s-159 58 -162 150h72c6 -48 37 -82 90 -82s84 34 90 82zM291 510c57 0 121 -29 164 -77v67h82v-500h-82v85c-35 -53 -96 -100 -172 -100c-129 0 -233 105 -233 257c0 165 104 268 241 268zM306 430c-107 0 -171 -91 -171 -188
s64 -177 161 -177c91 0 160 79 159 186l-1 96c-42 52 -87 83 -148 83z" />
    <glyph glyph-name="acircumflex" unicode="&#xe2;" 
d="M473 581h-82l-80 78l-80 -78h-82l140 139h44zM291 510c57 0 121 -29 164 -77v67h82v-500h-82v85c-35 -53 -96 -100 -172 -100c-129 0 -233 105 -233 257c0 165 104 268 241 268zM306 430c-107 0 -171 -91 -171 -188s64 -177 161 -177c91 0 160 79 159 186l-1 96
c-42 52 -87 83 -148 83z" />
    <glyph glyph-name="adieresis" unicode="&#xe4;" 
d="M206 719c34 0 63 -28 63 -63c0 -34 -29 -63 -63 -63c-35 0 -63 29 -63 63c0 35 28 63 63 63zM416 719c34 0 63 -28 63 -63c0 -34 -29 -63 -63 -63c-35 0 -63 29 -63 63c0 35 28 63 63 63zM291 510c57 0 121 -29 164 -77v67h82v-500h-82v85c-35 -53 -96 -100 -172 -100
c-129 0 -233 105 -233 257c0 165 104 268 241 268zM306 430c-107 0 -171 -91 -171 -188s64 -177 161 -177c91 0 160 79 159 186l-1 96c-42 52 -87 83 -148 83z" />
    <glyph glyph-name="agrave" unicode="&#xe0;" 
d="M246 720l110 -135h-82l-142 135h114zM291 510c57 0 121 -29 164 -77v67h82v-500h-82v85c-35 -53 -96 -100 -172 -100c-129 0 -233 105 -233 257c0 165 104 268 241 268zM306 430c-107 0 -171 -91 -171 -188s64 -177 161 -177c91 0 160 79 159 186l-1 96
c-42 52 -87 83 -148 83z" />
    <glyph glyph-name="amacron" unicode="&#x101;" 
d="M486 638h-350v80h350v-80zM291 510c57 0 121 -29 164 -77v67h82v-500h-82v85c-35 -53 -96 -100 -172 -100c-129 0 -233 105 -233 257c0 165 104 268 241 268zM306 430c-107 0 -171 -91 -171 -188s64 -177 161 -177c91 0 160 79 159 186l-1 96c-42 52 -87 83 -148 83z" />
    <glyph glyph-name="aogonek" unicode="&#x105;" 
d="M537 0h-4c-47 -19 -105 -55 -105 -98c0 -28 18 -51 53 -51c23 0 39 8 54 18v-69c-14 -7 -38 -25 -74 -25c-60 0 -117 33 -117 99c0 70 74 114 111 127v84c-35 -53 -96 -100 -172 -100c-129 0 -233 105 -233 257c0 165 104 268 241 268c57 0 121 -29 164 -77v67h82v-500z
M296 65c91 0 160 79 159 186l-1 96c-42 52 -87 83 -148 83c-107 0 -171 -91 -171 -188s64 -177 161 -177z" />
    <glyph glyph-name="aring" unicode="&#xe5;" 
d="M311 725c48 0 82 -38 82 -83s-34 -83 -82 -83s-83 38 -83 83s35 83 83 83zM311 684c-23 0 -41 -20 -41 -42c0 -23 18 -42 41 -42c22 0 40 19 40 42c0 22 -18 42 -40 42zM291 510c57 0 121 -29 164 -77v67h82v-500h-82v85c-35 -53 -96 -100 -172 -100
c-129 0 -233 105 -233 257c0 165 104 268 241 268zM306 430c-107 0 -171 -91 -171 -188s64 -177 161 -177c91 0 160 79 159 186l-1 96c-42 52 -87 83 -148 83z" />
    <glyph glyph-name="atilde" unicode="&#xe3;" 
d="M417 704h68c0 -58 -44 -103 -104 -103c-73 0 -84 51 -126 51c-23 0 -36 -21 -36 -46h-68c0 58 44 103 104 103c73 0 84 -51 126 -51c24 0 36 21 36 46zM291 510c57 0 121 -29 164 -77v67h82v-500h-82v85c-35 -53 -96 -100 -172 -100c-129 0 -233 105 -233 257
c0 165 104 268 241 268zM306 430c-107 0 -171 -91 -171 -188s64 -177 161 -177c91 0 160 79 159 186l-1 96c-42 52 -87 83 -148 83z" />
    <glyph glyph-name="ae" unicode="&#xe6;" horiz-adv-x="987" 
d="M937 267v-49h-384c12 -84 78 -153 174 -153c72 0 117 33 150 57v-83c-20 -20 -72 -54 -150 -54c-77 0 -144 31 -190 80v-65h-82v85c-35 -53 -96 -100 -172 -100c-129 0 -233 105 -233 257c0 165 104 268 241 268c57 0 121 -29 164 -77v67h82v-65c42 46 101 75 170 75
c154 0 230 -106 230 -243zM296 65c91 0 160 79 159 186l-1 96c-42 52 -87 83 -148 83c-107 0 -171 -91 -171 -188s64 -177 161 -177zM555 288h301c-10 97 -79 142 -149 142c-82 0 -138 -63 -152 -142z" />
    <glyph glyph-name="b" unicode="b" 
d="M167 720v-305c35 53 96 95 172 95c129 0 233 -100 233 -252c0 -165 -104 -273 -241 -273c-57 0 -121 34 -164 82v-67h-82v720h82zM326 430c-91 0 -160 -74 -159 -181l1 -96c42 -52 87 -88 148 -88c107 0 171 96 171 193s-64 172 -161 172z" />
    <glyph glyph-name="c" unicode="c" horiz-adv-x="511" 
d="M311 510c73 0 130 -30 150 -49v-83c-38 28 -83 52 -150 52c-107 0 -176 -86 -176 -183s69 -182 176 -182c67 0 112 24 150 52v-83c-20 -20 -77 -49 -150 -49c-152 0 -261 120 -261 262s109 263 261 263z" />
    <glyph glyph-name="cacute" unicode="&#x107;" horiz-adv-x="511" 
d="M330 585h-82l110 135h114zM311 510c73 0 130 -30 150 -49v-83c-38 28 -83 52 -150 52c-107 0 -176 -86 -176 -183s69 -182 176 -182c67 0 112 24 150 52v-83c-20 -20 -77 -49 -150 -49c-152 0 -261 120 -261 262s109 263 261 263z" />
    <glyph glyph-name="ccaron" unicode="&#x10d;" horiz-adv-x="511" 
d="M220 720l80 -78l80 78h82l-140 -139h-44l-140 139h82zM311 510c73 0 130 -30 150 -49v-83c-38 28 -83 52 -150 52c-107 0 -176 -86 -176 -183s69 -182 176 -182c67 0 112 24 150 52v-83c-20 -20 -77 -49 -150 -49c-152 0 -261 120 -261 262s109 263 261 263z" />
    <glyph glyph-name="ccedilla" unicode="&#xe7;" horiz-adv-x="511" 
d="M311 430c-107 0 -176 -86 -176 -183s69 -182 176 -182c67 0 112 24 150 52v-83c-19 -19 -74 -47 -143 -49l-5 -55c55 7 96 -28 96 -77c0 -53 -41 -93 -110 -93c-20 0 -57 8 -78 25l7 55c21 -11 45 -21 74 -21c23 0 39 13 39 31s-14 29 -39 29c-10 0 -22 -2 -35 -9l-16 12
l12 107c-126 22 -213 131 -213 258c0 142 109 263 261 263c73 0 130 -30 150 -49v-83c-38 28 -83 52 -150 52z" />
    <glyph glyph-name="d" unicode="d" 
d="M537 0h-82v85c-35 -53 -96 -100 -172 -100c-129 0 -233 105 -233 257c0 165 104 268 241 268c57 0 121 -29 164 -77v287h82v-720zM306 428c-107 0 -171 -89 -171 -186s64 -177 161 -177c91 0 160 79 159 186l-1 96c-42 52 -87 81 -148 81z" />
    <glyph glyph-name="eth" unicode="&#xf0;" horiz-adv-x="617" 
d="M531 628l-79 -34c78 -97 115 -203 115 -318c0 -161 -104 -291 -256 -291s-261 120 -261 262s109 263 261 263c61 0 118 -29 172 -94c-17 53 -52 106 -92 152l-99 -42l-21 54l77 33c-19 17 -37 33 -55 46l40 51c29 -23 55 -46 78 -70l99 42zM311 65c107 0 176 85 176 182
s-69 183 -176 183s-176 -86 -176 -183s69 -182 176 -182z" />
    <glyph glyph-name="dcaron" unicode="&#x10f;" horiz-adv-x="723" 
d="M537 0h-82v85c-35 -53 -96 -100 -172 -100c-129 0 -233 105 -233 257c0 165 104 268 241 268c57 0 121 -29 164 -77v287h82v-720zM703 718l-30 -188h-67l10 188h87zM306 428c-107 0 -171 -89 -171 -186s64 -177 161 -177c91 0 160 79 159 186l-1 96
c-42 52 -87 81 -148 81z" />
    <glyph glyph-name="dcroat" unicode="&#x111;" horiz-adv-x="612" 
d="M608 559h-71v-559h-82v85c-35 -53 -96 -100 -172 -100c-129 0 -233 105 -233 257c0 165 104 268 241 268c57 0 121 -29 164 -77v126h-147v80h147v81h82v-81h71v-80zM296 65c91 0 160 79 159 186l-1 96c-42 52 -87 81 -148 81c-107 0 -171 -89 -171 -186s64 -177 161 -177
z" />
    <glyph glyph-name="e" unicode="e" horiz-adv-x="571" 
d="M521 267v-49h-384c12 -84 78 -153 174 -153c72 0 117 33 150 57v-83c-20 -20 -72 -54 -150 -54c-152 0 -261 120 -261 262s100 263 241 263c154 0 230 -106 230 -243zM139 288h301c-10 97 -79 142 -149 142c-82 0 -138 -63 -152 -142z" />
    <glyph glyph-name="eacute" unicode="&#xe9;" horiz-adv-x="571" 
d="M468 720l-142 -135h-82l110 135h114zM521 267v-49h-384c12 -84 78 -153 174 -153c72 0 117 33 150 57v-83c-20 -20 -72 -54 -150 -54c-152 0 -261 120 -261 262s100 263 241 263c154 0 230 -106 230 -243zM139 288h301c-10 97 -79 142 -149 142c-82 0 -138 -63 -152 -142
z" />
    <glyph glyph-name="ecaron" unicode="&#x11b;" horiz-adv-x="571" 
d="M318 581h-44l-140 139h82l80 -78l80 78h82zM521 267v-49h-384c12 -84 78 -153 174 -153c72 0 117 33 150 57v-83c-20 -20 -72 -54 -150 -54c-152 0 -261 120 -261 262s100 263 241 263c154 0 230 -106 230 -243zM139 288h301c-10 97 -79 142 -149 142
c-82 0 -138 -63 -152 -142z" />
    <glyph glyph-name="ecircumflex" unicode="&#xea;" horiz-adv-x="571" 
d="M296 659l-80 -78h-82l140 139h44l140 -139h-82zM521 267v-49h-384c12 -84 78 -153 174 -153c72 0 117 33 150 57v-83c-20 -20 -72 -54 -150 -54c-152 0 -261 120 -261 262s100 263 241 263c154 0 230 -106 230 -243zM139 288h301c-10 97 -79 142 -149 142
c-82 0 -138 -63 -152 -142z" />
    <glyph glyph-name="edieresis" unicode="&#xeb;" horiz-adv-x="571" 
d="M191 593c-35 0 -63 29 -63 63c0 35 28 63 63 63c34 0 63 -28 63 -63c0 -34 -29 -63 -63 -63zM401 593c-35 0 -63 29 -63 63c0 35 28 63 63 63c34 0 63 -28 63 -63c0 -34 -29 -63 -63 -63zM521 267v-49h-384c12 -84 78 -153 174 -153c72 0 117 33 150 57v-83
c-20 -20 -72 -54 -150 -54c-152 0 -261 120 -261 262s100 263 241 263c154 0 230 -106 230 -243zM139 288h301c-10 97 -79 142 -149 142c-82 0 -138 -63 -152 -142z" />
    <glyph glyph-name="edotaccent" unicode="&#x117;" horiz-adv-x="571" 
d="M296 594c-35 0 -63 29 -63 63c0 35 28 63 63 63c34 0 63 -28 63 -63c0 -34 -29 -63 -63 -63zM521 267v-49h-384c12 -84 78 -153 174 -153c72 0 117 33 150 57v-83c-20 -20 -72 -54 -150 -54c-152 0 -261 120 -261 262s100 263 241 263c154 0 230 -106 230 -243zM139 288
h301c-10 97 -79 142 -149 142c-82 0 -138 -63 -152 -142z" />
    <glyph glyph-name="egrave" unicode="&#xe8;" horiz-adv-x="571" 
d="M341 585h-82l-142 135h114zM521 267v-49h-384c12 -84 78 -153 174 -153c72 0 117 33 150 57v-83c-20 -20 -72 -54 -150 -54c-152 0 -261 120 -261 262s100 263 241 263c154 0 230 -106 230 -243zM139 288h301c-10 97 -79 142 -149 142c-82 0 -138 -63 -152 -142z" />
    <glyph glyph-name="emacron" unicode="&#x113;" horiz-adv-x="571" 
d="M471 718v-80h-350v80h350zM521 267v-49h-384c12 -84 78 -153 174 -153c72 0 117 33 150 57v-83c-20 -20 -72 -54 -150 -54c-152 0 -261 120 -261 262s100 263 241 263c154 0 230 -106 230 -243zM139 288h301c-10 97 -79 142 -149 142c-82 0 -138 -63 -152 -142z" />
    <glyph glyph-name="eogonek" unicode="&#x119;" horiz-adv-x="571" 
d="M521 267v-49h-384c12 -84 78 -153 174 -153c72 0 117 33 150 57v-83c-11 -11 -32 -26 -62 -38h2c-47 -19 -107 -55 -107 -99c0 -28 18 -51 53 -51c23 0 39 8 54 18v-69c-14 -7 -38 -25 -74 -25c-60 0 -117 33 -117 99c0 53 42 91 79 112c-141 11 -239 126 -239 261
c0 142 100 263 241 263c154 0 230 -106 230 -243zM139 288h301c-10 97 -79 142 -149 142c-82 0 -138 -63 -152 -142z" />
    <glyph glyph-name="f" unicode="f" horiz-adv-x="368" 
d="M276 657c-49 -2 -78 -28 -78 -102v-55h146v-77h-146v-423h-82v423h-79v77h79v64c0 117 80 171 155 171c34 0 63 -10 83 -27v-72c-20 13 -50 22 -78 21z" />
    <glyph glyph-name="g" unicode="g" 
d="M291 510c57 0 121 -29 164 -77v67h82v-490c0 -179 -121 -265 -263 -265c-93 0 -148 32 -183 54v88c28 -16 96 -62 183 -62c97 0 181 56 181 155v105c-35 -53 -96 -100 -172 -100c-129 0 -233 105 -233 257c0 165 104 268 241 268zM306 429c-107 0 -171 -90 -171 -187
s64 -176 161 -176c91 0 160 78 159 185l-1 96c-42 52 -87 82 -148 82z" />
    <glyph glyph-name="gcommaaccent" unicode="&#x123;" 
d="M344 580v-48c-57 0 -107 38 -107 94c0 71 58 109 103 109c28 0 49 -9 62 -18v-52c-16 13 -34 18 -54 18c-36 0 -58 -22 -58 -54c0 -31 29 -49 54 -49zM291 510c57 0 121 -29 164 -77v67h82v-490c0 -179 -121 -265 -263 -265c-93 0 -148 32 -183 54v88
c28 -16 96 -62 183 -62c97 0 181 56 181 155v105c-35 -53 -96 -100 -172 -100c-129 0 -233 105 -233 257c0 165 104 268 241 268zM306 429c-107 0 -171 -90 -171 -187s64 -176 161 -176c91 0 160 78 159 185l-1 96c-42 52 -87 82 -148 82z" />
    <glyph glyph-name="h" unicode="h" horiz-adv-x="585" 
d="M330 510c102 0 185 -67 185 -205v-305h-82l-1 297c0 86 -37 133 -116 133c-53 0 -109 -46 -149 -98v-332h-82v720h82v-299c31 39 95 89 163 89z" />
    <glyph glyph-name="i" unicode="i" horiz-adv-x="308" 
d="M165 604c-39 0 -68 33 -68 68c0 36 29 68 68 68c38 0 68 -32 68 -68c0 -35 -30 -68 -68 -68zM216 500v-500h-82v423h-79v77h161z" />
    <glyph glyph-name="iacute" unicode="&#xed;" horiz-adv-x="279" 
d="M167 585h-82l110 135h114zM216 500v-500h-82v423h-79v77h161z" />
    <glyph glyph-name="icircumflex" unicode="&#xee;" horiz-adv-x="299" 
d="M152 659l-80 -78h-82l140 139h44l140 -139h-82zM242 500v-500h-82v423h-79v77h161z" />
    <glyph glyph-name="idieresis" unicode="&#xef;" horiz-adv-x="296" 
d="M106 656c0 -34 -29 -63 -63 -63c-35 0 -63 29 -63 63c0 35 28 63 63 63c34 0 63 -28 63 -63zM253 719c34 0 63 -28 63 -63c0 -34 -29 -63 -63 -63c-35 0 -63 29 -63 63c0 35 28 63 63 63zM227 500v-500h-82v423h-79v77h161z" />
    <glyph glyph-name="igrave" unicode="&#xec;" horiz-adv-x="284" 
d="M133 585l-142 135h114l110 -135h-82zM227 500v-500h-82v423h-79v77h161z" />
    <glyph glyph-name="ij" unicode="&#x133;" horiz-adv-x="597" 
d="M165 740c38 0 68 -32 68 -68c0 -35 -30 -68 -68 -68c-39 0 -68 33 -68 68c0 36 29 68 68 68zM459 604c-39 0 -68 33 -68 68c0 36 29 68 68 68c38 0 68 -32 68 -68c0 -35 -30 -68 -68 -68zM216 500v-500h-82v423h-79v77h161zM512 500v-498c0 -135 -67 -214 -172 -257
l-37 74c88 42 127 89 127 171v433h-79v77h161z" />
    <glyph glyph-name="imacron" unicode="&#x12b;" horiz-adv-x="440" 
d="M385 718v-80h-350v80h350zM283 500v-500h-82v423h-79v77h161z" />
    <glyph glyph-name="iogonek" unicode="&#x12f;" horiz-adv-x="291" 
d="M148 604c-39 0 -68 33 -68 68c0 36 29 68 68 68c38 0 68 -32 68 -68c0 -35 -30 -68 -68 -68zM199 1h17c-47 -19 -107 -55 -107 -99c0 -28 18 -51 53 -51c23 0 39 8 54 18v-69c-14 -7 -38 -25 -74 -25c-60 0 -117 33 -117 99c0 68 70 112 108 126h-16v423h-79v77h161v-499
z" />
    <glyph glyph-name="j" unicode="j" horiz-adv-x="289" 
d="M151 604c-39 0 -68 33 -68 68c0 36 29 68 68 68c38 0 68 -32 68 -68c0 -35 -30 -68 -68 -68zM204 500v-498c0 -135 -67 -214 -172 -257l-37 74c88 42 127 89 127 171v433h-79v77h161z" />
    <glyph glyph-name="k" unicode="k" horiz-adv-x="555" 
d="M239 229l-72 -67v-162h-82v720h82v-464l249 244h111l-231 -217l254 -283h-104z" />
    <glyph glyph-name="kcommaaccent" unicode="&#x137;" horiz-adv-x="555" 
d="M550 0h-104l-207 229l-72 -67v-162h-82v720h82v-464l249 244h111l-231 -217zM244 -70v48c57 0 107 -38 107 -94c0 -71 -58 -109 -103 -109c-28 0 -49 9 -62 18v52c16 -13 34 -18 54 -18c36 0 58 22 58 54c0 31 -29 49 -54 49z" />
    <glyph glyph-name="l" unicode="l" horiz-adv-x="252" 
d="M167 0h-82v720h82v-720z" />
    <glyph glyph-name="lacute" unicode="&#x13a;" horiz-adv-x="252" 
d="M156 805h-82l110 135h114zM167 0h-82v720h82v-720z" />
    <glyph glyph-name="lcaron" unicode="&#x13e;" horiz-adv-x="372" 
d="M167 0h-82v720h82v-720zM352 718l-30 -188h-67l10 188h87z" />
    <glyph glyph-name="lcommaaccent" unicode="&#x13c;" horiz-adv-x="252" 
d="M167 0h-82v720h82v-720zM92 -70v48c57 0 107 -38 107 -94c0 -71 -58 -109 -103 -109c-28 0 -49 9 -62 18v52c16 -13 34 -18 54 -18c36 0 58 22 58 54c0 31 -29 49 -54 49z" />
    <glyph glyph-name="ldot" unicode="&#x140;" horiz-adv-x="375" 
d="M167 0h-82v720h82v-720zM285 509c38 0 70 -31 70 -70c0 -38 -32 -70 -70 -70c-39 0 -70 32 -70 70c0 39 31 70 70 70z" />
    <glyph glyph-name="lslash" unicode="&#x142;" horiz-adv-x="301" 
d="M291 441l-109 -81v-360h-82v300l-90 -67v76l90 67v344h82v-284l109 81v-76z" />
    <glyph glyph-name="m" unicode="m" horiz-adv-x="927" 
d="M662 510c102 0 195 -67 195 -205v-305h-82l-1 297c0 86 -47 133 -126 133c-58 0 -98 -42 -136 -90v-340h-82l-1 297c0 86 -47 133 -126 133c-55 0 -99 -37 -136 -82v-348h-82v500h82v-64c32 36 82 74 150 74c72 0 139 -34 173 -102c47 55 98 102 172 102z" />
    <glyph glyph-name="n" unicode="n" horiz-adv-x="585" 
d="M330 510c102 0 185 -67 185 -205v-305h-82l-1 297c0 86 -37 133 -116 133c-53 0 -109 -46 -149 -98v-332h-82v500h82v-79c31 39 95 89 163 89z" />
    <glyph glyph-name="nacute" unicode="&#x144;" horiz-adv-x="585" 
d="M336 585h-82l110 135h114zM330 510c102 0 185 -67 185 -205v-305h-82l-1 297c0 86 -37 133 -116 133c-53 0 -109 -46 -149 -98v-332h-82v500h82v-79c31 39 95 89 163 89z" />
    <glyph glyph-name="ncaron" unicode="&#x148;" horiz-adv-x="585" 
d="M284 581l-140 139h82l80 -78l80 78h82l-140 -139h-44zM330 510c102 0 185 -67 185 -205v-305h-82l-1 297c0 86 -37 133 -116 133c-53 0 -109 -46 -149 -98v-332h-82v500h82v-79c31 39 95 89 163 89z" />
    <glyph glyph-name="ncommaaccent" unicode="&#x146;" horiz-adv-x="585" 
d="M330 510c102 0 185 -67 185 -205v-305h-82l-1 297c0 86 -37 133 -116 133c-53 0 -109 -46 -149 -98v-332h-82v500h82v-79c31 39 95 89 163 89zM264 -70v48c57 0 107 -38 107 -94c0 -71 -58 -109 -103 -109c-28 0 -49 9 -62 18v52c16 -13 34 -18 54 -18c36 0 58 22 58 54
c0 31 -29 49 -54 49z" />
    <glyph glyph-name="eng" unicode="&#x14b;" horiz-adv-x="585" 
d="M330 510c102 0 185 -67 185 -205v-318c0 -115 -67 -199 -172 -242l-37 74c88 42 127 94 127 176v5l-1 297c0 86 -37 133 -116 133c-53 0 -109 -46 -149 -98v-332h-82v500h82v-79c31 39 95 89 163 89z" />
    <glyph glyph-name="ntilde" unicode="&#xf1;" horiz-adv-x="585" 
d="M250 652c-23 0 -36 -21 -36 -46h-68c0 58 44 103 104 103c73 0 84 -51 126 -51c24 0 36 21 36 46h68c0 -58 -44 -103 -104 -103c-73 0 -84 51 -126 51zM330 510c102 0 185 -67 185 -205v-305h-82l-1 297c0 86 -37 133 -116 133c-53 0 -109 -46 -149 -98v-332h-82v500h82
v-79c31 39 95 89 163 89z" />
    <glyph glyph-name="o" unicode="o" 
d="M311 510c152 0 261 -121 261 -263s-109 -262 -261 -262s-261 120 -261 262s109 263 261 263zM311 430c-107 0 -176 -86 -176 -183s69 -182 176 -182s176 85 176 182s-69 183 -176 183z" />
    <glyph glyph-name="oacute" unicode="&#xf3;" 
d="M341 585h-82l110 135h114zM311 510c152 0 261 -121 261 -263s-109 -262 -261 -262s-261 120 -261 262s109 263 261 263zM311 430c-107 0 -176 -86 -176 -183s69 -182 176 -182s176 85 176 182s-69 183 -176 183z" />
    <glyph glyph-name="ocircumflex" unicode="&#xf4;" 
d="M473 581h-82l-80 78l-80 -78h-82l140 139h44zM311 510c152 0 261 -121 261 -263s-109 -262 -261 -262s-261 120 -261 262s109 263 261 263zM311 430c-107 0 -176 -86 -176 -183s69 -182 176 -182s176 85 176 182s-69 183 -176 183z" />
    <glyph glyph-name="odieresis" unicode="&#xf6;" 
d="M206 719c34 0 63 -28 63 -63c0 -34 -29 -63 -63 -63c-35 0 -63 29 -63 63c0 35 28 63 63 63zM416 719c34 0 63 -28 63 -63c0 -34 -29 -63 -63 -63c-35 0 -63 29 -63 63c0 35 28 63 63 63zM311 510c152 0 261 -121 261 -263s-109 -262 -261 -262s-261 120 -261 262
s109 263 261 263zM311 430c-107 0 -176 -86 -176 -183s69 -182 176 -182s176 85 176 182s-69 183 -176 183z" />
    <glyph glyph-name="ograve" unicode="&#xf2;" 
d="M246 720l110 -135h-82l-142 135h114zM311 510c152 0 261 -121 261 -263s-109 -262 -261 -262s-261 120 -261 262s109 263 261 263zM311 430c-107 0 -176 -86 -176 -183s69 -182 176 -182s176 85 176 182s-69 183 -176 183z" />
    <glyph glyph-name="ohungarumlaut" unicode="&#x151;" 
d="M240 585h-82l110 135h114zM391 585h-82l110 135h114zM311 510c152 0 261 -121 261 -263s-109 -262 -261 -262s-261 120 -261 262s109 263 261 263zM311 430c-107 0 -176 -86 -176 -183s69 -182 176 -182s176 85 176 182s-69 183 -176 183z" />
    <glyph glyph-name="omacron" unicode="&#x14d;" 
d="M486 638h-350v80h350v-80zM311 510c152 0 261 -121 261 -263s-109 -262 -261 -262s-261 120 -261 262s109 263 261 263zM311 430c-107 0 -176 -86 -176 -183s69 -182 176 -182s176 85 176 182s-69 183 -176 183z" />
    <glyph glyph-name="oslash" unicode="&#xf8;" horiz-adv-x="612" 
d="M555 470l-47 -49c41 -47 64 -108 64 -174c0 -142 -109 -262 -261 -262c-63 0 -119 21 -163 55l-52 -55l-49 40l57 61c-34 44 -54 101 -54 161c0 142 109 263 261 263c57 0 108 -17 149 -46l43 46zM135 247c0 -36 10 -71 27 -100l242 257c-26 17 -58 26 -93 26
c-107 0 -176 -86 -176 -183zM311 65c107 0 176 85 176 182c0 42 -12 82 -36 113l-246 -260c28 -22 64 -35 106 -35z" />
    <glyph glyph-name="otilde" unicode="&#xf5;" 
d="M417 704h68c0 -58 -44 -103 -104 -103c-73 0 -84 51 -126 51c-23 0 -36 -21 -36 -46h-68c0 58 44 103 104 103c73 0 84 -51 126 -51c24 0 36 21 36 46zM311 510c152 0 261 -121 261 -263s-109 -262 -261 -262s-261 120 -261 262s109 263 261 263zM311 430
c-107 0 -176 -86 -176 -183s69 -182 176 -182s176 85 176 182s-69 183 -176 183z" />
    <glyph glyph-name="oe" unicode="&#x153;" horiz-adv-x="1014" 
d="M964 267v-49h-384c12 -84 78 -153 174 -153c72 0 117 33 150 57v-83c-20 -20 -72 -54 -150 -54c-97 0 -177 49 -221 121c-45 -72 -125 -121 -222 -121c-152 0 -261 120 -261 262s109 263 261 263c96 0 175 -48 220 -119c41 71 114 119 203 119c154 0 230 -106 230 -243z
M311 65c107 0 176 85 176 182s-69 183 -176 183s-176 -86 -176 -183s69 -182 176 -182zM582 288h301c-10 97 -79 142 -149 142c-82 0 -138 -63 -152 -142z" />
    <glyph glyph-name="p" unicode="p" 
d="M339 510c129 0 233 -100 233 -252c0 -165 -104 -273 -241 -273c-57 0 -121 34 -164 82v-307h-82v740h82v-85c35 53 96 95 172 95zM326 430c-91 0 -160 -74 -159 -181l1 -96c42 -52 87 -88 148 -88c107 0 171 96 171 193s-64 172 -161 172z" />
    <glyph glyph-name="thorn" unicode="&#xfe;" 
d="M167 720v-305c35 53 96 95 172 95c129 0 233 -100 233 -252c0 -165 -104 -268 -241 -268c-57 0 -121 29 -164 77v-307h-82v960h82zM326 429c-91 0 -160 -73 -159 -180l1 -96c42 -52 87 -82 148 -82c107 0 171 90 171 187s-64 171 -161 171z" />
    <glyph glyph-name="q" unicode="q" 
d="M291 510c57 0 121 -29 164 -77v67h82v-740h-82v325c-35 -53 -96 -100 -172 -100c-129 0 -233 105 -233 257c0 165 104 268 241 268zM306 429c-107 0 -171 -90 -171 -187s64 -176 161 -176c91 0 160 78 159 185l-1 96c-42 52 -87 82 -148 82z" />
    <glyph glyph-name="r" unicode="r" horiz-adv-x="402" 
d="M321 510c23 0 43 -5 61 -14v-98c-21 16 -47 26 -73 26c-68 0 -105 -55 -142 -122v-302h-82v500h82v-100c38 66 97 110 154 110z" />
    <glyph glyph-name="racute" unicode="&#x155;" horiz-adv-x="402" 
d="M257 585h-82l110 135h114zM167 500v-100c38 66 97 110 154 110c23 0 43 -5 61 -14v-98c-21 16 -47 26 -73 26c-68 0 -105 -55 -142 -122v-302h-82v500h82z" />
    <glyph glyph-name="rcaron" unicode="&#x159;" horiz-adv-x="402" 
d="M205 581l-140 139h82l80 -78l80 78h82l-140 -139h-44zM167 500v-100c38 66 97 110 154 110c23 0 43 -5 61 -14v-98c-21 16 -47 26 -73 26c-68 0 -105 -55 -142 -122v-302h-82v500h82z" />
    <glyph glyph-name="rcommaaccent" unicode="&#x157;" horiz-adv-x="402" 
d="M321 510c23 0 43 -5 61 -14v-98c-21 16 -47 26 -73 26c-68 0 -105 -55 -142 -122v-302h-82v500h82v-100c38 66 97 110 154 110zM96 -70v48c57 0 107 -38 107 -94c0 -71 -58 -109 -103 -109c-28 0 -49 9 -62 18v52c16 -13 34 -18 54 -18c36 0 58 22 58 54
c0 31 -29 49 -54 49z" />
    <glyph glyph-name="s" unicode="s" horiz-adv-x="428" 
d="M234 510c59 0 114 -21 137 -38v-88c-28 21 -81 46 -131 46c-63 0 -94 -36 -94 -68c0 -25 15 -54 61 -70l84 -30c65 -23 97 -67 97 -124c0 -85 -77 -153 -184 -153c-59 0 -131 27 -154 44v88c28 -21 98 -52 148 -52c63 0 102 31 102 73c0 32 -25 48 -72 65l-74 27
c-78 29 -96 75 -96 132c0 85 69 148 176 148z" />
    <glyph glyph-name="sacute" unicode="&#x15b;" horiz-adv-x="428" 
d="M404 720l-142 -135h-82l110 135h114zM234 510c59 0 114 -21 137 -38v-88c-28 21 -81 46 -131 46c-63 0 -94 -36 -94 -68c0 -25 15 -54 61 -70l84 -30c65 -23 97 -67 97 -124c0 -85 -77 -153 -184 -153c-59 0 -131 27 -154 44v88c28 -21 98 -52 148 -52
c63 0 102 31 102 73c0 32 -25 48 -72 65l-74 27c-78 29 -96 75 -96 132c0 85 69 148 176 148z" />
    <glyph glyph-name="scaron" unicode="&#x161;" horiz-adv-x="428" 
d="M70 720h82l80 -78l80 78h82l-140 -139h-44zM234 510c59 0 114 -21 137 -38v-88c-28 21 -81 46 -131 46c-63 0 -94 -36 -94 -68c0 -25 15 -54 61 -70l84 -30c65 -23 97 -67 97 -124c0 -85 -77 -153 -184 -153c-59 0 -131 27 -154 44v88c28 -21 98 -52 148 -52
c63 0 102 31 102 73c0 32 -25 48 -72 65l-74 27c-78 29 -96 75 -96 132c0 85 69 148 176 148z" />
    <glyph glyph-name="scedilla" unicode="&#x15f;" horiz-adv-x="428" 
d="M388 138c0 -78 -64 -141 -157 -152l-5 -56c55 7 96 -28 96 -77c0 -53 -41 -93 -110 -93c-20 0 -57 8 -78 25l7 55c21 -11 45 -21 74 -21c23 0 39 13 39 31s-14 29 -39 29c-10 0 -22 -2 -35 -9l-16 12l12 105c-52 6 -107 28 -126 42v88c28 -21 98 -52 148 -52
c63 0 102 31 102 73c0 32 -25 48 -72 65l-74 27c-78 29 -96 75 -96 132c0 85 69 148 176 148c59 0 114 -21 137 -38v-88c-28 21 -81 46 -131 46c-63 0 -94 -36 -94 -68c0 -25 15 -54 61 -70l84 -30c65 -23 97 -67 97 -124z" />
    <glyph glyph-name="germandbls" unicode="&#xdf;" horiz-adv-x="648" 
d="M264 725c92 0 186 -55 186 -173c0 -104 -87 -121 -87 -183c0 -40 49 -55 86 -74l57 -29c63 -32 102 -75 102 -131c0 -95 -88 -145 -179 -145c-63 0 -113 20 -148 45v87c38 -30 85 -52 148 -52c54 0 98 24 98 66c0 37 -67 69 -81 75l-71 29c-55 23 -93 63 -93 120
c0 88 87 129 87 196c0 55 -52 92 -100 91c-49 -1 -102 -22 -102 -112v-535h-82v544c0 133 94 181 179 181z" />
    <glyph glyph-name="t" unicode="t" horiz-adv-x="433" 
d="M223 500h146v-77h-146v-293c0 -42 21 -67 65 -67c40 0 65 12 85 24v-67c-27 -21 -53 -35 -103 -35c-85 0 -129 56 -129 141v297h-96v24c65 29 107 98 140 197h38v-144z" />
    <glyph glyph-name="tbar" unicode="&#x167;" horiz-adv-x="428" 
d="M288 63c40 0 65 12 85 24v-67c-27 -21 -53 -35 -103 -35c-85 0 -129 56 -129 141v97h-98v70h98v130h-96v24c65 29 107 98 140 197h38v-144h146v-77h-146v-130h140v-70h-140v-93c0 -42 21 -67 65 -67z" />
    <glyph glyph-name="tcaron" unicode="&#x165;" horiz-adv-x="442" 
d="M382 718l-30 -188h-67l10 188h87zM223 500h146v-77h-146v-293c0 -42 21 -67 65 -67c40 0 65 12 85 24v-67c-27 -21 -53 -35 -103 -35c-85 0 -129 56 -129 141v297h-96v24c65 29 107 98 140 197h38v-144z" />
    <glyph glyph-name="tcedilla" unicode="&#x163;" horiz-adv-x="433" 
d="M373 87v-67c-25 -20 -50 -33 -94 -35l-5 -55c55 7 96 -28 96 -77c0 -53 -41 -93 -110 -93c-20 0 -57 8 -78 25l7 55c21 -11 45 -21 74 -21c23 0 39 13 39 31s-14 29 -39 29c-10 0 -22 -2 -35 -9l-16 12l13 109c-56 17 -84 67 -84 135v297h-96v24c65 29 107 98 140 197h38
v-144h146v-77h-146v-293c0 -42 21 -67 65 -67c40 0 65 12 85 24z" />
    <glyph glyph-name="u" unicode="u" horiz-adv-x="564" 
d="M494 500v-296c0 -132 -92 -214 -212 -214s-212 82 -212 214v296h85v-296c0 -87 60 -134 127 -134s127 47 127 134v296h85z" />
    <glyph glyph-name="uacute" unicode="&#xfa;" horiz-adv-x="564" 
d="M317 585h-82l110 135h114zM494 500v-296c0 -132 -92 -214 -212 -214s-212 82 -212 214v296h85v-296c0 -87 60 -134 127 -134s127 47 127 134v296h85z" />
    <glyph glyph-name="ucircumflex" unicode="&#xfb;" horiz-adv-x="564" 
d="M449 581h-82l-80 78l-80 -78h-82l140 139h44zM494 500v-296c0 -132 -92 -214 -212 -214s-212 82 -212 214v296h85v-296c0 -87 60 -134 127 -134s127 47 127 134v296h85z" />
    <glyph glyph-name="udieresis" unicode="&#xfc;" horiz-adv-x="564" 
d="M182 719c34 0 63 -28 63 -63c0 -34 -29 -63 -63 -63c-35 0 -63 29 -63 63c0 35 28 63 63 63zM392 719c34 0 63 -28 63 -63c0 -34 -29 -63 -63 -63c-35 0 -63 29 -63 63c0 35 28 63 63 63zM494 500v-296c0 -132 -92 -214 -212 -214s-212 82 -212 214v296h85v-296
c0 -87 60 -134 127 -134s127 47 127 134v296h85z" />
    <glyph glyph-name="ugrave" unicode="&#xf9;" horiz-adv-x="564" 
d="M222 720l110 -135h-82l-142 135h114zM494 500v-296c0 -132 -92 -214 -212 -214s-212 82 -212 214v296h85v-296c0 -87 60 -134 127 -134s127 47 127 134v296h85z" />
    <glyph glyph-name="uhungarumlaut" unicode="&#x171;" horiz-adv-x="564" 
d="M216 585h-82l110 135h114zM367 585h-82l110 135h114zM494 500v-296c0 -132 -92 -214 -212 -214s-212 82 -212 214v296h85v-296c0 -87 60 -134 127 -134s127 47 127 134v296h85z" />
    <glyph glyph-name="umacron" unicode="&#x16b;" horiz-adv-x="564" 
d="M462 638h-350v80h350v-80zM494 500v-296c0 -132 -92 -214 -212 -214s-212 82 -212 214v296h85v-296c0 -87 60 -134 127 -134s127 47 127 134v296h85z" />
    <glyph glyph-name="uogonek" unicode="&#x173;" horiz-adv-x="564" 
d="M494 500v-296c0 -104 -57 -177 -139 -203h12c-47 -19 -107 -55 -107 -99c0 -28 18 -51 53 -51c23 0 39 8 54 18v-69c-14 -7 -38 -25 -74 -25c-60 0 -117 33 -117 99c0 57 49 97 87 117c-110 8 -193 88 -193 213v296h85v-296c0 -87 60 -134 127 -134s127 47 127 134v296
h85z" />
    <glyph glyph-name="uring" unicode="&#x16f;" horiz-adv-x="564" 
d="M287 725c48 0 82 -38 82 -83s-34 -83 -82 -83s-83 38 -83 83s35 83 83 83zM287 684c-23 0 -41 -20 -41 -42c0 -23 18 -42 41 -42c22 0 40 19 40 42c0 22 -18 42 -40 42zM494 500v-296c0 -132 -92 -214 -212 -214s-212 82 -212 214v296h85v-296c0 -87 60 -134 127 -134
s127 47 127 134v296h85z" />
    <glyph glyph-name="v" unicode="v" horiz-adv-x="541" 
d="M291 0h-51l-225 500h98l151 -368l164 368h98z" />
    <glyph glyph-name="w" unicode="w" horiz-adv-x="756" 
d="M566 0h-51l-137 353l-137 -353h-51l-175 500h98l111 -351l131 351h46l131 -351l111 351h98z" />
    <glyph glyph-name="wacute" unicode="&#x1e83;" horiz-adv-x="756" 
d="M409 585h-82l110 135h114zM566 0h-51l-137 353l-137 -353h-51l-175 500h98l111 -351l131 351h46l131 -351l111 351h98z" />
    <glyph glyph-name="wcircumflex" unicode="&#x175;" horiz-adv-x="756" 
d="M541 581h-82l-80 78l-80 -78h-82l140 139h44zM566 0h-51l-137 353l-137 -353h-51l-175 500h98l111 -351l131 351h46l131 -351l111 351h98z" />
    <glyph glyph-name="wdieresis" unicode="&#x1e85;" horiz-adv-x="756" 
d="M274 719c34 0 63 -28 63 -63c0 -34 -29 -63 -63 -63c-35 0 -63 29 -63 63c0 35 28 63 63 63zM484 719c34 0 63 -28 63 -63c0 -34 -29 -63 -63 -63c-35 0 -63 29 -63 63c0 35 28 63 63 63zM566 0h-51l-137 353l-137 -353h-51l-175 500h98l111 -351l131 351h46l131 -351
l111 351h98z" />
    <glyph glyph-name="wgrave" unicode="&#x1e81;" horiz-adv-x="756" 
d="M314 720l110 -135h-82l-142 135h114zM566 0h-51l-137 353l-137 -353h-51l-175 500h98l111 -351l131 351h46l131 -351l111 351h98z" />
    <glyph glyph-name="x" unicode="x" horiz-adv-x="559" 
d="M331 260l213 -260h-106l-158 202l-159 -202h-106l213 260l-210 240h106l156 -175l155 175h106z" />
    <glyph glyph-name="y" unicode="y" horiz-adv-x="571" 
d="M556 500l-368 -740h-95l143 270l-221 470h98l175 -368l170 368h98z" />
    <glyph glyph-name="yacute" unicode="&#xfd;" horiz-adv-x="571" 
d="M315 585h-82l110 135h114zM556 500l-368 -740h-95l143 270l-221 470h98l175 -368l170 368h98z" />
    <glyph glyph-name="ycircumflex" unicode="&#x177;" horiz-adv-x="571" 
d="M205 581h-82l140 139h44l140 -139h-82l-80 78zM556 500l-368 -740h-95l143 270l-221 470h98l175 -368l170 368h98z" />
    <glyph glyph-name="ydieresis" unicode="&#xff;" horiz-adv-x="571" 
d="M180 593c-35 0 -63 29 -63 63c0 35 28 63 63 63c34 0 63 -28 63 -63c0 -34 -29 -63 -63 -63zM390 593c-35 0 -63 29 -63 63c0 35 28 63 63 63c34 0 63 -28 63 -63c0 -34 -29 -63 -63 -63zM556 500l-368 -740h-95l143 270l-221 470h98l175 -368l170 368h98z" />
    <glyph glyph-name="ygrave" unicode="&#x1ef3;" horiz-adv-x="571" 
d="M248 585l-142 135h114l110 -135h-82zM556 500l-368 -740h-95l143 270l-221 470h98l175 -368l170 368h98z" />
    <glyph glyph-name="z" unicode="z" horiz-adv-x="549" 
d="M484 473l-301 -396h311v-77h-439v27l291 396h-271v77h409v-27z" />
    <glyph glyph-name="zacute" unicode="&#x17a;" horiz-adv-x="549" 
d="M305 585h-82l110 135h114zM484 473l-301 -396h311v-77h-439v27l291 396h-271v77h409v-27z" />
    <glyph glyph-name="zcaron" unicode="&#x17e;" horiz-adv-x="549" 
d="M195 720l80 -78l80 78h82l-140 -139h-44l-140 139h82zM484 473l-301 -396h311v-77h-439v27l291 396h-271v77h409v-27z" />
    <glyph glyph-name="zdotaccent" unicode="&#x17c;" horiz-adv-x="549" 
d="M275 720c34 0 63 -28 63 -63c0 -34 -29 -63 -63 -63c-35 0 -63 29 -63 63c0 35 28 63 63 63zM484 473l-301 -396h311v-77h-439v27l291 396h-271v77h409v-27z" />
    <glyph glyph-name="zero" unicode="0" horiz-adv-x="550" 
d="M278 685c172 0 253 -178 253 -350s-81 -350 -253 -350s-253 178 -253 350s81 350 253 350zM278 597c-110 0 -168 -132 -168 -262s58 -262 168 -262s168 132 168 262s-58 262 -168 262z" />
    <glyph glyph-name="one" unicode="1" horiz-adv-x="550" 
d="M471 80v-80h-363v80h133v436c-40 -35 -84 -44 -126 -52v86c77 20 135 70 172 120h44v-590h140z" />
    <glyph glyph-name="two" unicode="2" horiz-adv-x="550" 
d="M256 685c132 0 222 -76 222 -198c0 -131 -105 -225 -270 -404h275v-83h-420v36c204 227 330 342 330 431c0 87 -65 130 -145 130c-66 0 -127 -40 -165 -75v94c35 32 97 69 173 69z" />
    <glyph glyph-name="three" unicode="3" horiz-adv-x="550" 
d="M246 685c132 0 228 -82 228 -193c0 -90 -81 -136 -133 -150c52 -14 133 -69 133 -159c0 -112 -93 -198 -225 -198c-79 0 -143 32 -178 64v99c45 -32 93 -82 180 -82c80 0 138 45 138 122c0 66 -69 115 -143 115h-60v80h60c84 0 143 39 143 104c0 69 -66 117 -146 117
c-69 0 -114 -35 -152 -74v99c35 32 94 56 155 56z" />
    <glyph glyph-name="four" unicode="4" horiz-adv-x="550" 
d="M423 224h105v-76h-105v-148h-90v148h-306v33c114 122 259 287 363 489h33v-446zM333 224v226c-53 -83 -108 -161 -166 -226h166z" />
    <glyph glyph-name="five" unicode="5" horiz-adv-x="550" 
d="M463 587h-264v-179c20 8 44 14 85 14c111 0 206 -88 206 -205c0 -136 -105 -232 -247 -232c-73 0 -145 37 -180 69v99c38 -31 101 -87 180 -87c90 0 162 57 162 143c0 81 -78 133 -167 133c-51 0 -92 -16 -129 -30v358h354v-83z" />
    <glyph glyph-name="six" unicode="6" horiz-adv-x="550" 
d="M308 670h133c-82 -77 -245 -212 -284 -316c33 41 85 81 148 81c131 0 211 -101 211 -208c0 -116 -85 -242 -227 -242c-134 0 -241 98 -241 258c0 199 191 357 260 427zM284 354c-75 0 -151 -56 -151 -137c0 -91 76 -151 151 -151s147 60 147 151c0 81 -72 137 -147 137z
" />
    <glyph glyph-name="seven" unicode="7" horiz-adv-x="550" 
d="M514 670v-42c-167 -239 -262 -405 -262 -628h-103c0 232 132 401 258 587h-356v83h463z" />
    <glyph glyph-name="eight" unicode="8" horiz-adv-x="550" 
d="M275 685c112 0 201 -73 201 -178c0 -77 -43 -123 -97 -154c63 -29 117 -90 117 -166c0 -112 -89 -202 -221 -202s-221 90 -221 202c0 76 54 137 117 166c-54 31 -97 77 -97 154c0 105 89 178 201 178zM275 604c-57 0 -116 -45 -116 -107s59 -101 116 -101s116 39 116 101
s-59 107 -116 107zM275 312c-67 0 -136 -53 -136 -120s59 -126 136 -126s136 59 136 126s-69 120 -136 120z" />
    <glyph glyph-name="nine" unicode="9" horiz-adv-x="550" 
d="M254 0h-133c82 77 245 212 284 316c-33 -41 -85 -81 -148 -81c-131 0 -211 101 -211 208c0 116 85 242 227 242c134 0 241 -98 241 -258c0 -199 -191 -357 -260 -427zM278 316c75 0 151 56 151 137c0 91 -76 151 -151 151s-147 -60 -147 -151c0 -81 72 -137 147 -137z
" />
    <glyph glyph-name="asterisk" unicode="*" horiz-adv-x="494" 
d="M277 583l104 44l23 -68l-108 -31l76 -95l-58 -42l-67 103l-67 -103l-58 42l76 95l-108 31l23 68l104 -44l-6 122h72z" />
    <glyph glyph-name="backslash" unicode="\" horiz-adv-x="364" 
d="M374 -200h-68l-316 870h71z" />
    <glyph glyph-name="periodcentered" unicode="&#xb7;" horiz-adv-x="300" 
d="M150 403c38 0 70 -31 70 -70c0 -38 -32 -70 -70 -70c-39 0 -70 32 -70 70c0 39 31 70 70 70z" />
    <glyph glyph-name="bullet" unicode="&#x2022;" horiz-adv-x="423" 
d="M211 435c72 0 132 -59 132 -132c0 -71 -60 -131 -132 -131c-73 0 -131 60 -131 131c0 73 58 132 131 132z" />
    <glyph glyph-name="colon" unicode=":" horiz-adv-x="300" 
d="M150 522c38 0 70 -31 70 -70c0 -38 -32 -70 -70 -70c-39 0 -70 32 -70 70c0 39 31 70 70 70zM150 122c38 0 70 -31 70 -70c0 -38 -32 -70 -70 -70c-39 0 -70 32 -70 70c0 39 31 70 70 70z" />
    <glyph glyph-name="comma" unicode="," horiz-adv-x="282" 
d="M202 90l-90 -267l-62 16l70 279z" />
    <glyph glyph-name="ellipsis" unicode="&#x2026;" horiz-adv-x="840" 
d="M150 122c38 0 70 -31 70 -70c0 -38 -32 -70 -70 -70c-39 0 -70 32 -70 70c0 39 31 70 70 70zM420 122c38 0 70 -31 70 -70c0 -38 -32 -70 -70 -70c-39 0 -70 32 -70 70c0 39 31 70 70 70zM690 122c38 0 70 -31 70 -70c0 -38 -32 -70 -70 -70c-39 0 -70 32 -70 70
c0 39 31 70 70 70z" />
    <glyph glyph-name="exclam" unicode="!" horiz-adv-x="300" 
d="M191 220h-82v450h82v-450zM150 122c38 0 70 -31 70 -70c0 -38 -32 -70 -70 -70c-39 0 -70 32 -70 70c0 39 31 70 70 70z" />
    <glyph glyph-name="exclamdown" unicode="&#xa1;" horiz-adv-x="242" 
d="M150 548c-39 0 -70 31 -70 70c0 38 31 70 70 70c38 0 70 -32 70 -70c0 -39 -32 -70 -70 -70zM109 0v450h82v-450h-82z" />
    <glyph glyph-name="numbersign" unicode="#" horiz-adv-x="770" 
d="M565 408l-51 -168h106v-70h-128l-52 -170h-68l52 170h-164l-52 -170h-68l52 170h-112v70h133l51 168h-114v80h138l55 182h71l-56 -182h162l55 182h71l-56 -182h100v-80h-125zM496 408h-162l-52 -168h163z" />
    <glyph glyph-name="period" unicode="." horiz-adv-x="300" 
d="M150 122c38 0 70 -31 70 -70c0 -38 -32 -70 -70 -70c-39 0 -70 32 -70 70c0 39 31 70 70 70z" />
    <glyph glyph-name="question" unicode="?" horiz-adv-x="560" 
d="M265 685c120 0 215 -82 215 -195c0 -124 -185 -174 -181 -251l1 -21h-97v40c0 73 175 133 175 219c0 65 -43 113 -123 113s-127 -32 -175 -93v109c36 44 108 79 185 79zM256 122c38 0 70 -31 70 -70c0 -38 -32 -70 -70 -70c-39 0 -70 32 -70 70c0 39 31 70 70 70z" />
    <glyph glyph-name="questiondown" unicode="&#xbf;" horiz-adv-x="560" 
d="M304 364c-38 0 -70 31 -70 70c0 38 32 70 70 70c39 0 70 -32 70 -70c0 -39 -31 -70 -70 -70zM295 -199c-120 0 -215 82 -215 195c0 124 185 174 181 251l-1 21h97v-40c0 -73 -175 -133 -175 -219c0 -65 43 -113 123 -113s127 32 175 93v-109c-36 -44 -108 -79 -185 -79z
" />
    <glyph glyph-name="quotedbl" unicode="&#x22;" horiz-adv-x="442" 
d="M162 441h-82v254h82v-254zM362 441h-82v254h82v-254z" />
    <glyph glyph-name="quotesingle" unicode="'" horiz-adv-x="242" 
d="M162 416h-82v254h82v-254z" />
    <glyph glyph-name="semicolon" unicode=";" horiz-adv-x="352" 
d="M191 522c38 0 70 -31 70 -70c0 -38 -32 -70 -70 -70c-39 0 -70 32 -70 70c0 39 31 70 70 70zM232 90l-90 -267l-62 16l70 279z" />
    <glyph glyph-name="slash" unicode="/" horiz-adv-x="414" 
d="M108 -200h-68l263 905h71z" />
    <glyph glyph-name="underscore" unicode="_" horiz-adv-x="490" 
d="M490 -111h-490v90h490v-90z" />
    <glyph glyph-name="braceleft" unicode="{" horiz-adv-x="434" 
d="M394 600h-44c-86 0 -98 -51 -98 -155v-105c0 -42 -27 -75 -65 -95c38 -20 65 -53 65 -95v-105c0 -104 12 -155 98 -155h44v-90h-64c-105 0 -175 81 -175 182v136c0 60 -12 82 -75 82v90c63 0 75 22 75 82v136c0 101 70 182 175 182h64v-90z" />
    <glyph glyph-name="braceright" unicode="}" horiz-adv-x="434" 
d="M40 690h64c105 0 175 -81 175 -182v-136c0 -60 12 -82 75 -82v-90c-63 0 -75 -22 -75 -82v-136c0 -101 -70 -182 -175 -182h-64v90h44c86 0 98 51 98 155v105c0 42 27 75 65 95c-38 20 -65 53 -65 95v105c0 104 -12 155 -98 155h-44v90z" />
    <glyph glyph-name="bracketleft" unicode="[" horiz-adv-x="379" 
d="M339 600h-162v-710h162v-90h-259v890h259v-90z" />
    <glyph glyph-name="bracketright" unicode="]" horiz-adv-x="379" 
d="M299 690v-890h-259v90h162v710h-162v90h259z" />
    <glyph glyph-name="parenleft" unicode="(" horiz-adv-x="363" 
d="M232 690h91c-81 -90 -151 -295 -151 -445c0 -160 70 -355 151 -445h-91c-82 85 -162 263 -162 445c0 172 80 360 162 445z" />
    <glyph glyph-name="parenright" unicode=")" horiz-adv-x="393" 
d="M70 690h91c82 -85 162 -273 162 -445c0 -182 -80 -360 -162 -445h-91c81 90 151 285 151 445c0 150 -70 355 -151 445z" />
    <glyph glyph-name="emdash" unicode="&#x2014;" horiz-adv-x="888" 
d="M828 208h-768v90h768v-90z" />
    <glyph glyph-name="endash" unicode="&#x2013;" horiz-adv-x="610" 
d="M550 208h-490v90h490v-90z" />
    <glyph glyph-name="hyphen" unicode="-" horiz-adv-x="421" 
d="M361 208h-301v90h301v-90z" />
    <glyph glyph-name="quotedblbase" unicode="&#x201e;" horiz-adv-x="272" 
d="M182 90l-90 -267l-62 16l70 279z" />
    <glyph glyph-name="quotedblleft" unicode="&#x201c;" horiz-adv-x="432" 
d="M212 702l-90 -269l-82 28l110 257zM392 702l-90 -269l-82 28l110 257z" />
    <glyph glyph-name="quotedblright" unicode="&#x201d;" horiz-adv-x="432" 
d="M40 443l90 269l82 -28l-110 -257zM220 443l90 269l82 -28l-110 -257z" />
    <glyph glyph-name="quoteleft" unicode="&#x2018;" horiz-adv-x="232" 
d="M212 672l-90 -269l-82 28l110 257z" />
    <glyph glyph-name="quoteright" unicode="&#x2019;" horiz-adv-x="212" 
d="M192 660l-110 -257l-62 16l90 269z" />
    <glyph glyph-name="quotesinglbase" unicode="&#x201a;" horiz-adv-x="312" 
d="M202 90l-90 -267l-62 16l70 279z" />
    <glyph glyph-name="space" unicode=" " horiz-adv-x="300" 
 />
    <glyph glyph-name="cent" unicode="&#xa2;" horiz-adv-x="511" 
d="M461 461v-83c-35 26 -77 49 -136 52v-365c59 3 101 26 136 52v-83c-19 -19 -70 -45 -136 -49v-65h-72v71c-121 26 -203 133 -203 256s82 231 203 257v76h72v-70c66 -4 117 -31 136 -49zM135 247c0 -78 45 -148 118 -173v347c-73 -25 -118 -96 -118 -174z" />
    <glyph glyph-name="currency" unicode="&#xa4;" horiz-adv-x="542" 
d="M438 34l-64 64c-31 -19 -67 -30 -103 -30s-72 11 -103 30l-64 -64l-54 51l65 62c-22 29 -35 65 -35 105s13 76 35 105l-62 62l48 51l66 -64c31 19 67 30 104 30s73 -11 104 -30l66 64l48 -51l-62 -62c22 -29 35 -65 35 -105s-13 -76 -34 -105l64 -62zM156 252
c0 -69 53 -110 115 -110s115 41 115 110s-53 110 -115 110s-115 -41 -115 -110z" />
    <glyph glyph-name="dollar" unicode="$" horiz-adv-x="550" 
d="M472 190c0 -86 -74 -151 -167 -166v-84h-72v83c-57 6 -107 31 -145 57v85c47 -33 108 -64 186 -64c61 0 114 32 114 86c0 45 -50 72 -87 87l-111 46c-88 37 -113 90 -113 158c0 82 69 149 156 166v66h72v-62c59 -5 103 -28 134 -48v-84c-34 25 -94 53 -151 53
c-55 0 -126 -29 -126 -94c0 -49 39 -71 90 -92l93 -38c85 -35 127 -78 127 -155z" />
    <glyph glyph-name="Euro" unicode="&#x20ac;" horiz-adv-x="617" 
d="M396 597c-101 0 -161 -68 -182 -169h258v-70h-267v-23c0 -11 0 -22 1 -32h266v-70h-256c23 -96 82 -160 180 -160c72 0 121 24 161 58v-90c-47 -38 -94 -56 -161 -56c-148 0 -243 105 -273 248h-73v70h64c-1 11 -1 21 -1 32v23h-63v70h71c28 147 123 257 275 257
c71 0 134 -34 171 -72v-99c-37 37 -95 83 -171 83z" />
    <glyph glyph-name="sterling" unicode="&#xa3;" horiz-adv-x="513" 
d="M371 602c-59 -1 -118 -48 -118 -152v-72h156v-80h-156v-35c0 -74 -24 -135 -61 -173h289v-90h-391v70c58 20 81 119 81 193v35h-79v80h79v81c0 147 99 221 205 221c54 0 101 -24 123 -47v-80c-30 26 -80 50 -128 49z" />
    <glyph glyph-name="yen" unicode="&#xa5;" horiz-adv-x="631" 
d="M405 338h122v-70h-163v-55h163v-70h-163v-143h-97v143h-162v70h162v49l-4 6h-158v70h114l-209 332h108l196 -316l199 316h108z" />
    <glyph glyph-name="approxequal" unicode="&#x2248;" horiz-adv-x="524" 
d="M382 489h82c0 -70 -53 -125 -126 -125c-88 0 -102 62 -152 62c-28 0 -44 -26 -44 -56h-82c0 70 53 125 126 125c88 0 102 -62 152 -62c29 0 44 26 44 56zM382 274h82c0 -70 -53 -125 -126 -125c-88 0 -102 62 -152 62c-28 0 -44 -26 -44 -56h-82c0 70 53 125 126 125
c88 0 102 -62 152 -62c29 0 44 26 44 56z" />
    <glyph glyph-name="asciitilde" unicode="~" horiz-adv-x="524" 
d="M382 416h82c0 -70 -53 -125 -126 -125c-88 0 -102 62 -152 62c-28 0 -44 -26 -44 -56h-82c0 70 53 125 126 125c88 0 102 -62 152 -62c29 0 44 26 44 56z" />
    <glyph glyph-name="divide" unicode="&#xf7;" horiz-adv-x="551" 
d="M276 557c34 0 63 -28 63 -63c0 -34 -29 -63 -63 -63c-35 0 -63 29 -63 63c0 35 28 63 63 63zM471 268h-391v90h391v-90zM276 193c34 0 63 -28 63 -63c0 -34 -29 -63 -63 -63c-35 0 -63 29 -63 63c0 35 28 63 63 63z" />
    <glyph glyph-name="equal" unicode="=" horiz-adv-x="551" 
d="M471 358h-391v90h391v-90zM471 173h-391v90h391v-90z" />
    <glyph glyph-name="greater" unicode="&#x3e;" horiz-adv-x="500" 
d="M440 327v-51l-400 -276v98l306 205l-306 191v98z" />
    <glyph glyph-name="greaterequal" unicode="&#x2265;" horiz-adv-x="533" 
d="M453 383v-42l-373 -228v81l283 169l-283 158v81zM453 0h-373v74h373v-74z" />
    <glyph glyph-name="less" unicode="&#x3c;" horiz-adv-x="500" 
d="M460 494l-306 -191l306 -205v-98l-400 276v51l400 265v-98z" />
    <glyph glyph-name="lessequal" unicode="&#x2264;" horiz-adv-x="533" 
d="M453 521l-283 -158l283 -169v-81l-373 228v42l373 219v-81zM453 74v-74h-373v74h373z" />
    <glyph glyph-name="minus" unicode="&#x2212;" horiz-adv-x="551" 
d="M471 268h-391v90h391v-90z" />
    <glyph glyph-name="multiply" unicode="&#xd7;" horiz-adv-x="500" 
d="M314 313l106 -106l-64 -64l-106 106l-106 -107l-64 64l107 107l-106 106l63 64l106 -106l106 106l64 -64z" />
    <glyph glyph-name="notequal" unicode="&#x2260;" horiz-adv-x="551" 
d="M338 358l-54 -95h187v-90h-238l-51 -91h-68l51 91h-85v90h135l53 95h-188v90h238l35 62h71l-35 -62h82v-90h-133z" />
    <glyph glyph-name="percent" unicode="%" horiz-adv-x="824" 
d="M644 663l-411 -683l-53 27l408 683zM192 685c90 0 152 -69 152 -153c0 -85 -62 -153 -152 -153c-91 0 -152 68 -152 153c0 84 61 153 152 153zM193 617c-47 0 -83 -39 -83 -85c0 -47 36 -86 83 -86c46 0 82 39 82 86c0 46 -36 85 -82 85zM632 291c90 0 152 -69 152 -153
c0 -85 -62 -153 -152 -153c-91 0 -152 68 -152 153c0 84 61 153 152 153zM633 223c-47 0 -83 -39 -83 -85c0 -47 36 -86 83 -86c46 0 82 39 82 86c0 46 -36 85 -82 85z" />
    <glyph glyph-name="plus" unicode="+" horiz-adv-x="550" 
d="M470 268h-150v-151h-90v151h-150v90h150v150h90v-150h150v-90z" />
    <glyph glyph-name="plusminus" unicode="&#xb1;" horiz-adv-x="531" 
d="M220 288h-140v90h140v120h90v-120h140v-90h-140v-121h-90v121zM451 90v-90h-371v90h371z" />
    <glyph glyph-name="bar" unicode="|" horiz-adv-x="230" 
d="M150 -200h-70v905h70v-905z" />
    <glyph glyph-name="brokenbar" unicode="&#xa6;" horiz-adv-x="230" 
d="M150 289h-70v416h70v-416zM150 -200h-70v416h70v-416z" />
    <glyph glyph-name="at" unicode="@" horiz-adv-x="824" 
d="M412 612c194 0 362 -126 362 -339c0 -119 -89 -217 -196 -217c-57 0 -97 29 -107 73c-36 -49 -81 -73 -136 -73c-95 0 -152 86 -134 187c21 120 106 196 214 196c42 0 82 -20 107 -56l9 49h72l-48 -208c-15 -64 -19 -104 37 -104c47 0 99 52 99 153
c0 167 -122 263 -279 263c-156 0 -279 -126 -279 -293c0 -166 113 -275 279 -275c98 0 156 22 236 67l36 -61c-91 -49 -173 -81 -272 -81c-204 0 -362 137 -362 350s168 369 362 369zM414 365c-78 0 -122 -51 -136 -122c-14 -70 14 -118 78 -118c66 0 117 35 135 112l19 82
c-26 30 -61 46 -96 46z" />
    <glyph glyph-name="ampersand" unicode="&#x26;" horiz-adv-x="709" 
d="M659 0h-111c-27 27 -53 54 -79 81c-51 -58 -113 -96 -199 -96c-132 0 -220 77 -220 185c0 99 81 147 165 188c-44 46 -82 91 -82 158c0 114 90 169 183 169c89 0 185 -58 185 -163c0 -81 -57 -125 -124 -168c-9 -6 -19 -12 -29 -17c37 -43 75 -85 114 -127
c25 38 50 82 84 140h98c-44 -78 -86 -147 -124 -202zM232 512c0 -41 28 -77 62 -115c60 31 108 66 108 125c0 52 -48 75 -86 75c-40 0 -84 -22 -84 -85zM273 73c70 0 106 30 138 69c-45 50 -91 101 -139 156c-66 -33 -123 -68 -123 -128c0 -62 52 -97 124 -97z" />
    <glyph glyph-name="paragraph" unicode="&#xb6;" horiz-adv-x="663" 
d="M501 -210v824h-120v-824h-55v502h-50c-112 0 -226 54 -226 189c0 138 114 189 226 189h277v-880h-52z" />
    <glyph glyph-name="copyright" unicode="&#xa9;" horiz-adv-x="884" 
d="M442 723c224 0 392 -175 392 -388s-168 -388 -392 -388s-392 175 -392 388s168 388 392 388zM442 649c-185 0 -309 -129 -309 -314s124 -314 309 -314s309 129 309 314s-124 314 -309 314zM462 552c59 0 105 -24 121 -40v-67c-31 23 -67 42 -121 42
c-87 0 -143 -70 -143 -148c0 -79 56 -148 143 -148c54 0 90 19 121 42v-67c-16 -17 -62 -40 -121 -40c-124 0 -212 97 -212 213c0 115 88 213 212 213z" />
    <glyph glyph-name="registered" unicode="&#xae;" horiz-adv-x="884" 
d="M442 723c224 0 392 -175 392 -388s-168 -388 -392 -388s-392 175 -392 388s168 388 392 388zM442 21c185 0 309 129 309 314s-124 314 -309 314s-309 -129 -309 -314s124 -314 309 -314zM468 301l-20 1l194 -166h-82l-188 167v-167h-54v397h153c68 0 138 -37 138 -119
c0 -74 -73 -113 -141 -113zM372 483v-127c26 -8 58 -12 88 -12c60 0 94 27 94 70c0 45 -41 69 -92 69h-90z" />
    <glyph glyph-name="section" unicode="&#xa7;" horiz-adv-x="523" 
d="M419 55c36 -30 54 -67 54 -119c0 -109 -107 -186 -230 -186c-77 0 -144 31 -192 65v93c52 -36 119 -70 204 -70c67 0 126 35 126 94c0 50 -55 78 -96 96l-111 50c-96 43 -124 99 -124 174c0 44 18 84 47 116c-35 34 -47 75 -47 124c0 106 103 188 222 188
c79 0 126 -28 165 -53v-93c-38 28 -93 58 -155 58c-61 0 -139 -31 -139 -103c0 -54 44 -76 99 -101l92 -42c92 -42 139 -86 139 -170c0 -48 -20 -89 -54 -121zM334 106l8 -4c24 16 39 40 39 70c0 50 -55 78 -96 96l-109 49c-20 -16 -33 -39 -33 -68c0 -54 44 -76 99 -101z
" />
    <glyph glyph-name="trademark" unicode="&#x2122;" horiz-adv-x="511" 
d="M40 671h190v-42h-69v-162h-52v162h-69v42zM471 670v-203h-53v98l-42 -64h-18l-46 64v-98h-53v203h27l81 -107l78 107h26z" />
    <glyph glyph-name="degree" unicode="&#xb0;" horiz-adv-x="443" 
d="M222 685c100 0 171 -79 171 -172c0 -95 -71 -173 -171 -173s-172 78 -172 173c0 93 72 172 172 172zM222 608c-53 0 -94 -45 -94 -95c0 -53 41 -97 94 -97c52 0 93 44 93 97c0 50 -41 95 -93 95z" />
    <glyph glyph-name="asciicircum" unicode="^" horiz-adv-x="603" 
d="M543 310h-88l-160 268l-147 -268h-88l211 360h51z" />
    <glyph glyph-name="dagger" unicode="&#x2020;" horiz-adv-x="443" 
d="M403 440h-133v-540h-97v540h-133v80h133v150h97v-150h133v-80z" />
    <glyph glyph-name="daggerdbl" unicode="&#x2021;" horiz-adv-x="600" 
d="M270 440v-175h133v-80h-133v-285h-97v285h-133v80h133v175h-133v80h133v150h97v-150h133v-80h-133z" />
    <glyph glyph-name="acute" unicode="&#xb4;" horiz-adv-x="314" 
d="M152 585h-82l110 135h114z" />
    <glyph glyph-name="breve" unicode="&#x2d8;" horiz-adv-x="484" 
d="M332 720h72c-3 -92 -72 -150 -162 -150s-159 58 -162 150h72c6 -48 37 -82 90 -82s84 34 90 82z" />
    <glyph glyph-name="caron" unicode="&#x2c7;" horiz-adv-x="484" 
d="M162 720l80 -78l80 78h82l-140 -139h-44l-140 139h82z" />
    <glyph glyph-name="cedilla" unicode="&#xb8;" horiz-adv-x="353" 
d="M183 2l-6 -72c55 7 96 -28 96 -77c0 -53 -41 -93 -110 -93c-20 0 -57 8 -78 25l7 55c21 -11 45 -21 74 -21c23 0 39 13 39 31s-14 29 -39 29c-10 0 -22 -2 -35 -9l-16 12l14 120h54z" />
    <glyph glyph-name="circumflex" unicode="&#x2c6;" horiz-adv-x="484" 
d="M404 581h-82l-80 78l-80 -78h-82l140 139h44z" />
    <glyph glyph-name="dieresis" unicode="&#xa8;" horiz-adv-x="496" 
d="M143 719c34 0 63 -28 63 -63c0 -34 -29 -63 -63 -63c-35 0 -63 29 -63 63c0 35 28 63 63 63zM353 719c34 0 63 -28 63 -63c0 -34 -29 -63 -63 -63c-35 0 -63 29 -63 63c0 35 28 63 63 63z" />
    <glyph glyph-name="dotaccent" unicode="&#x2d9;" horiz-adv-x="300" 
d="M150 720c34 0 63 -28 63 -63c0 -34 -29 -63 -63 -63c-35 0 -63 29 -63 63c0 35 28 63 63 63z" />
    <glyph glyph-name="grave" unicode="`" horiz-adv-x="314" 
d="M133 720l110 -135h-82l-142 135h114z" />
    <glyph glyph-name="hungarumlaut" unicode="&#x2dd;" horiz-adv-x="475" 
d="M132 585h-82l110 135h114zM283 585h-82l110 135h114z" />
    <glyph glyph-name="macron" unicode="&#xaf;" horiz-adv-x="530" 
d="M440 638h-350v80h350v-80z" />
    <glyph glyph-name="ogonek" unicode="&#x2db;" horiz-adv-x="600" 
d="M294 1h80c-47 -19 -107 -55 -107 -99c0 -28 18 -51 53 -51c23 0 39 8 54 18v-69c-14 -7 -38 -25 -74 -25c-60 0 -117 33 -117 99c0 70 74 114 111 127z" />
    <glyph glyph-name="ring" unicode="&#x2da;" horiz-adv-x="325" 
d="M163 725c48 0 82 -38 82 -83s-34 -83 -82 -83s-83 38 -83 83s35 83 83 83zM163 684c-23 0 -41 -20 -41 -42c0 -23 18 -42 41 -42c22 0 40 19 40 42c0 22 -18 42 -40 42z" />
    <glyph glyph-name="tilde" unicode="&#x2dc;" horiz-adv-x="470" 
d="M342 720h68c0 -58 -44 -103 -104 -103c-73 0 -84 51 -126 51c-23 0 -36 -21 -36 -46h-68c0 58 44 103 104 103c73 0 84 -51 126 -51c24 0 36 21 36 46z" />
    <glyph glyph-name="uni0326" unicode="&#x326;" horiz-adv-x="0" 
d="M118 -70v48c57 0 107 -38 107 -94c0 -71 -58 -109 -103 -109c-28 0 -49 9 -62 18v52c16 -13 34 -18 54 -18c36 0 58 22 58 54c0 31 -29 49 -54 49z" />
    <glyph glyph-name="idotless" horiz-adv-x="301" 
d="M216 500v-500h-82v423h-79v77h161z" />
    </font>
</defs>
</svg>
